<?xml version="1.0" encoding="us-ascii" standalone="no"?><svg xmlns="http://www.w3.org/2000/svg" xmlns:xlink="http://www.w3.org/1999/xlink" contentStyleType="text/css" height="822px" preserveAspectRatio="none" style="width:943px;height:822px;background:#FFFFFF;" version="1.1" viewBox="0 0 943 822" width="943px" zoomAndPan="magnify"><defs/><g><!--class annotation-feedbacks--><g id="elem_annotation-feedbacks"><rect codeLine="2" fill="#F1F1F1" height="96.8906" id="annotation-feedbacks" rx="2.5" ry="2.5" style="stroke:#181818;stroke-width:0.5;" width="183" x="7" y="181"/><ellipse cx="22" cy="197" fill="#ADD1B2" rx="11" ry="11" style="stroke:#181818;stroke-width:1.0;"/><path d="M24.9688,202.6406 Q24.3906,202.9375 23.75,203.0781 Q23.1094,203.2344 22.4063,203.2344 Q19.9063,203.2344 18.5781,201.5938 Q17.2656,199.9375 17.2656,196.8125 Q17.2656,193.6875 18.5781,192.0313 Q19.9063,190.375 22.4063,190.375 Q23.1094,190.375 23.75,190.5313 Q24.4063,190.6875 24.9688,190.9844 L24.9688,193.7031 Q24.3438,193.125 23.75,192.8594 Q23.1563,192.5781 22.5313,192.5781 Q21.1875,192.5781 20.5,193.6563 Q19.8125,194.7188 19.8125,196.8125 Q19.8125,198.9063 20.5,199.9844 Q21.1875,201.0469 22.5313,201.0469 Q23.1563,201.0469 23.75,200.7813 Q24.3438,200.5 24.9688,199.9219 L24.9688,202.6406 Z " fill="#000000"/><text fill="#000000" font-family="sans-serif" font-size="14" lengthAdjust="spacing" textLength="151" x="36" y="201.8467">annotation-feedbacks</text><line style="stroke:#181818;stroke-width:0.5;" x1="8" x2="189" y1="213" y2="213"/><text fill="#000000" font-family="sans-serif" font-size="14" lengthAdjust="spacing" textLength="64" x="13" y="229.9951">feedback</text><text fill="#000000" font-family="sans-serif" font-size="14" lengthAdjust="spacing" textLength="39" x="13" y="246.292">rating</text><text fill="#000000" font-family="sans-serif" font-size="14" lengthAdjust="spacing" textLength="53" x="13" y="262.5889">created</text><line style="stroke:#181818;stroke-width:0.5;" x1="8" x2="189" y1="269.8906" y2="269.8906"/></g><!--class annotations--><g id="elem_annotations"><rect codeLine="7" fill="#F1F1F1" height="96.8906" id="annotations" rx="2.5" ry="2.5" style="stroke:#181818;stroke-width:0.5;" width="114" x="406.5" y="7"/><ellipse cx="421.5" cy="23" fill="#ADD1B2" rx="11" ry="11" style="stroke:#181818;stroke-width:1.0;"/><path d="M424.4688,28.6406 Q423.8906,28.9375 423.25,29.0781 Q422.6094,29.2344 421.9063,29.2344 Q419.4063,29.2344 418.0781,27.5938 Q416.7656,25.9375 416.7656,22.8125 Q416.7656,19.6875 418.0781,18.0313 Q419.4063,16.375 421.9063,16.375 Q422.6094,16.375 423.25,16.5313 Q423.9063,16.6875 424.4688,16.9844 L424.4688,19.7031 Q423.8438,19.125 423.25,18.8594 Q422.6563,18.5781 422.0313,18.5781 Q420.6875,18.5781 420,19.6563 Q419.3125,20.7188 419.3125,22.8125 Q419.3125,24.9063 420,25.9844 Q420.6875,27.0469 422.0313,27.0469 Q422.6563,27.0469 423.25,26.7813 Q423.8438,26.5 424.4688,25.9219 L424.4688,28.6406 Z " fill="#000000"/><text fill="#000000" font-family="sans-serif" font-size="14" lengthAdjust="spacing" textLength="82" x="435.5" y="27.8467">annotations</text><line style="stroke:#181818;stroke-width:0.5;" x1="407.5" x2="519.5" y1="39" y2="39"/><text fill="#000000" font-family="sans-serif" font-size="14" lengthAdjust="spacing" textLength="34" x="412.5" y="55.9951">body</text><text fill="#000000" font-family="sans-serif" font-size="14" lengthAdjust="spacing" textLength="53" x="412.5" y="72.292">created</text><text fill="#000000" font-family="sans-serif" font-size="14" lengthAdjust="spacing" textLength="71" x="412.5" y="88.5889">motivation</text><line style="stroke:#181818;stroke-width:0.5;" x1="407.5" x2="519.5" y1="95.8906" y2="95.8906"/></g><!--class annotation-types--><g id="elem_annotation-types"><rect codeLine="38" fill="#F1F1F1" height="64.2969" id="annotation-types" rx="2.5" ry="2.5" style="stroke:#181818;stroke-width:0.5;" width="149" x="301" y="751"/><ellipse cx="316" cy="767" fill="#ADD1B2" rx="11" ry="11" style="stroke:#181818;stroke-width:1.0;"/><path d="M318.9688,772.6406 Q318.3906,772.9375 317.75,773.0781 Q317.1094,773.2344 316.4063,773.2344 Q313.9063,773.2344 312.5781,771.5938 Q311.2656,769.9375 311.2656,766.8125 Q311.2656,763.6875 312.5781,762.0313 Q313.9063,760.375 316.4063,760.375 Q317.1094,760.375 317.75,760.5313 Q318.4063,760.6875 318.9688,760.9844 L318.9688,763.7031 Q318.3438,763.125 317.75,762.8594 Q317.1563,762.5781 316.5313,762.5781 Q315.1875,762.5781 314.5,763.6563 Q313.8125,764.7188 313.8125,766.8125 Q313.8125,768.9063 314.5,769.9844 Q315.1875,771.0469 316.5313,771.0469 Q317.1563,771.0469 317.75,770.7813 Q318.3438,770.5 318.9688,769.9219 L318.9688,772.6406 Z " fill="#000000"/><text fill="#000000" font-family="sans-serif" font-size="14" lengthAdjust="spacing" textLength="117" x="330" y="771.8467">annotation-types</text><line style="stroke:#181818;stroke-width:0.5;" x1="302" x2="449" y1="783" y2="783"/><text fill="#000000" font-family="sans-serif" font-size="14" lengthAdjust="spacing" textLength="25" x="307" y="799.9951">title</text><line style="stroke:#181818;stroke-width:0.5;" x1="302" x2="449" y1="807.2969" y2="807.2969"/></g><!--class agents--><g id="elem_agents"><rect codeLine="15" fill="#F1F1F1" height="64.2969" id="agents" rx="2.5" ry="2.5" style="stroke:#181818;stroke-width:0.5;" width="80" x="441.5" y="197.5"/><ellipse cx="456.5" cy="213.5" fill="#ADD1B2" rx="11" ry="11" style="stroke:#181818;stroke-width:1.0;"/><path d="M459.4688,219.1406 Q458.8906,219.4375 458.25,219.5781 Q457.6094,219.7344 456.9063,219.7344 Q454.4063,219.7344 453.0781,218.0938 Q451.7656,216.4375 451.7656,213.3125 Q451.7656,210.1875 453.0781,208.5313 Q454.4063,206.875 456.9063,206.875 Q457.6094,206.875 458.25,207.0313 Q458.9063,207.1875 459.4688,207.4844 L459.4688,210.2031 Q458.8438,209.625 458.25,209.3594 Q457.6563,209.0781 457.0313,209.0781 Q455.6875,209.0781 455,210.1563 Q454.3125,211.2188 454.3125,213.3125 Q454.3125,215.4063 455,216.4844 Q455.6875,217.5469 457.0313,217.5469 Q457.6563,217.5469 458.25,217.2813 Q458.8438,217 459.4688,216.4219 L459.4688,219.1406 Z " fill="#000000"/><text fill="#000000" font-family="sans-serif" font-size="14" lengthAdjust="spacing" textLength="48" x="470.5" y="218.3467">agents</text><line style="stroke:#181818;stroke-width:0.5;" x1="442.5" x2="520.5" y1="229.5" y2="229.5"/><text fill="#000000" font-family="sans-serif" font-size="14" lengthAdjust="spacing" textLength="39" x="447.5" y="246.4951">name</text><line style="stroke:#181818;stroke-width:0.5;" x1="442.5" x2="520.5" y1="253.7969" y2="253.7969"/></g><!--class besluits--><g id="elem_besluits"><rect codeLine="41" fill="#F1F1F1" height="96.8906" id="besluits" rx="2.5" ry="2.5" style="stroke:#181818;stroke-width:0.5;" width="86" x="664.5" y="181"/><ellipse cx="679.5" cy="197" fill="#ADD1B2" rx="11" ry="11" style="stroke:#181818;stroke-width:1.0;"/><path d="M682.4688,202.6406 Q681.8906,202.9375 681.25,203.0781 Q680.6094,203.2344 679.9063,203.2344 Q677.4063,203.2344 676.0781,201.5938 Q674.7656,199.9375 674.7656,196.8125 Q674.7656,193.6875 676.0781,192.0313 Q677.4063,190.375 679.9063,190.375 Q680.6094,190.375 681.25,190.5313 Q681.9063,190.6875 682.4688,190.9844 L682.4688,193.7031 Q681.8438,193.125 681.25,192.8594 Q680.6563,192.5781 680.0313,192.5781 Q678.6875,192.5781 678,193.6563 Q677.3125,194.7188 677.3125,196.8125 Q677.3125,198.9063 678,199.9844 Q678.6875,201.0469 680.0313,201.0469 Q680.6563,201.0469 681.25,200.7813 Q681.8438,200.5 682.4688,199.9219 L682.4688,202.6406 Z " fill="#000000"/><text fill="#000000" font-family="sans-serif" font-size="14" lengthAdjust="spacing" textLength="54" x="693.5" y="201.8467">besluits</text><line style="stroke:#181818;stroke-width:0.5;" x1="665.5" x2="749.5" y1="213" y2="213"/><text fill="#000000" font-family="sans-serif" font-size="14" lengthAdjust="spacing" textLength="25" x="670.5" y="229.9951">title</text><text fill="#000000" font-family="sans-serif" font-size="14" lengthAdjust="spacing" textLength="63" x="670.5" y="246.292">besluituri</text><text fill="#000000" font-family="sans-serif" font-size="14" lengthAdjust="spacing" textLength="67" x="670.5" y="262.5889">download</text><line style="stroke:#181818;stroke-width:0.5;" x1="665.5" x2="749.5" y1="269.8906" y2="269.8906"/></g><!--class aanduidingsobjects--><g id="elem_aanduidingsobjects"><rect codeLine="18" fill="#F1F1F1" height="129.4844" id="aanduidingsobjects" rx="2.5" ry="2.5" style="stroke:#181818;stroke-width:0.5;" width="167" x="644" y="355"/><ellipse cx="659" cy="371" fill="#ADD1B2" rx="11" ry="11" style="stroke:#181818;stroke-width:1.0;"/><path d="M661.9688,376.6406 Q661.3906,376.9375 660.75,377.0781 Q660.1094,377.2344 659.4063,377.2344 Q656.9063,377.2344 655.5781,375.5938 Q654.2656,373.9375 654.2656,370.8125 Q654.2656,367.6875 655.5781,366.0313 Q656.9063,364.375 659.4063,364.375 Q660.1094,364.375 660.75,364.5313 Q661.4063,364.6875 661.9688,364.9844 L661.9688,367.7031 Q661.3438,367.125 660.75,366.8594 Q660.1563,366.5781 659.5313,366.5781 Q658.1875,366.5781 657.5,367.6563 Q656.8125,368.7188 656.8125,370.8125 Q656.8125,372.9063 657.5,373.9844 Q658.1875,375.0469 659.5313,375.0469 Q660.1563,375.0469 660.75,374.7813 Q661.3438,374.5 661.9688,373.9219 L661.9688,376.6406 Z " fill="#000000"/><text fill="#000000" font-family="sans-serif" font-size="14" lengthAdjust="spacing" textLength="135" x="673" y="375.8467">aanduidingsobjects</text><line style="stroke:#181818;stroke-width:0.5;" x1="645" x2="810" y1="387" y2="387"/><text fill="#000000" font-family="sans-serif" font-size="14" lengthAdjust="spacing" textLength="25" x="650" y="403.9951">title</text><text fill="#000000" font-family="sans-serif" font-size="14" lengthAdjust="spacing" textLength="77" x="650" y="420.292">description</text><text fill="#000000" font-family="sans-serif" font-size="14" lengthAdjust="spacing" textLength="59" x="650" y="436.5889">identifier</text><text fill="#000000" font-family="sans-serif" font-size="14" lengthAdjust="spacing" textLength="32" x="650" y="452.8857">style</text><text fill="#000000" font-family="sans-serif" font-size="14" lengthAdjust="spacing" textLength="56" x="650" y="469.1826">creation</text><line style="stroke:#181818;stroke-width:0.5;" x1="645" x2="810" y1="476.4844" y2="476.4844"/></g><!--class addresses--><g id="elem_addresses"><rect codeLine="29" fill="#F1F1F1" height="129.4844" id="addresses" rx="2.5" ry="2.5" style="stroke:#181818;stroke-width:0.5;" width="136" x="536.5" y="561"/><ellipse cx="565.45" cy="577" fill="#ADD1B2" rx="11" ry="11" style="stroke:#181818;stroke-width:1.0;"/><path d="M568.4188,582.6406 Q567.8406,582.9375 567.2,583.0781 Q566.5594,583.2344 565.8563,583.2344 Q563.3563,583.2344 562.0281,581.5938 Q560.7156,579.9375 560.7156,576.8125 Q560.7156,573.6875 562.0281,572.0313 Q563.3563,570.375 565.8563,570.375 Q566.5594,570.375 567.2,570.5313 Q567.8563,570.6875 568.4188,570.9844 L568.4188,573.7031 Q567.7938,573.125 567.2,572.8594 Q566.6063,572.5781 565.9813,572.5781 Q564.6375,572.5781 563.95,573.6563 Q563.2625,574.7188 563.2625,576.8125 Q563.2625,578.9063 563.95,579.9844 Q564.6375,581.0469 565.9813,581.0469 Q566.6063,581.0469 567.2,580.7813 Q567.7938,580.5 568.4188,579.9219 L568.4188,582.6406 Z " fill="#000000"/><text fill="#000000" font-family="sans-serif" font-size="14" lengthAdjust="spacing" textLength="73" x="582.55" y="581.8467">addresses</text><line style="stroke:#181818;stroke-width:0.5;" x1="537.5" x2="671.5" y1="593" y2="593"/><text fill="#000000" font-family="sans-serif" font-size="14" lengthAdjust="spacing" textLength="124" x="542.5" y="609.9951">municipality-name</text><text fill="#000000" font-family="sans-serif" font-size="14" lengthAdjust="spacing" textLength="59" x="542.5" y="626.292">province</text><text fill="#000000" font-family="sans-serif" font-size="14" lengthAdjust="spacing" textLength="85" x="542.5" y="642.5889">street-name</text><text fill="#000000" font-family="sans-serif" font-size="14" lengthAdjust="spacing" textLength="82" x="542.5" y="658.8857">postal-code</text><text fill="#000000" font-family="sans-serif" font-size="14" lengthAdjust="spacing" textLength="85" x="542.5" y="675.1826">bus-number</text><line style="stroke:#181818;stroke-width:0.5;" x1="537.5" x2="671.5" y1="682.4844" y2="682.4844"/></g><!--class concepts--><g id="elem_concepts"><rect codeLine="27" fill="#F1F1F1" height="64.2969" id="concepts" rx="2.5" ry="2.5" style="stroke:#181818;stroke-width:0.5;" width="97" x="785" y="593.5"/><ellipse cx="800" cy="609.5" fill="#ADD1B2" rx="11" ry="11" style="stroke:#181818;stroke-width:1.0;"/><path d="M802.9688,615.1406 Q802.3906,615.4375 801.75,615.5781 Q801.1094,615.7344 800.4063,615.7344 Q797.9063,615.7344 796.5781,614.0938 Q795.2656,612.4375 795.2656,609.3125 Q795.2656,606.1875 796.5781,604.5313 Q797.9063,602.875 800.4063,602.875 Q801.1094,602.875 801.75,603.0313 Q802.4063,603.1875 802.9688,603.4844 L802.9688,606.2031 Q802.3438,605.625 801.75,605.3594 Q801.1563,605.0781 800.5313,605.0781 Q799.1875,605.0781 798.5,606.1563 Q797.8125,607.2188 797.8125,609.3125 Q797.8125,611.4063 798.5,612.4844 Q799.1875,613.5469 800.5313,613.5469 Q801.1563,613.5469 801.75,613.2813 Q802.3438,613 802.9688,612.4219 L802.9688,615.1406 Z " fill="#000000"/><text fill="#000000" font-family="sans-serif" font-size="14" lengthAdjust="spacing" textLength="65" x="814" y="614.3467">concepts</text><line style="stroke:#181818;stroke-width:0.5;" x1="786" x2="881" y1="625.5" y2="625.5"/><text fill="#000000" font-family="sans-serif" font-size="14" lengthAdjust="spacing" textLength="25" x="791" y="642.4951">title</text><line style="stroke:#181818;stroke-width:0.5;" x1="786" x2="881" y1="649.7969" y2="649.7969"/></g><!--class locations--><g id="elem_locations"><rect codeLine="37" fill="#F1F1F1" height="48" id="locations" rx="2.5" ry="2.5" style="stroke:#181818;stroke-width:0.5;" width="94" x="507.5" y="395.5"/><ellipse cx="522.5" cy="411.5" fill="#ADD1B2" rx="11" ry="11" style="stroke:#181818;stroke-width:1.0;"/><path d="M525.4688,417.1406 Q524.8906,417.4375 524.25,417.5781 Q523.6094,417.7344 522.9063,417.7344 Q520.4063,417.7344 519.0781,416.0938 Q517.7656,414.4375 517.7656,411.3125 Q517.7656,408.1875 519.0781,406.5313 Q520.4063,404.875 522.9063,404.875 Q523.6094,404.875 524.25,405.0313 Q524.9063,405.1875 525.4688,405.4844 L525.4688,408.2031 Q524.8438,407.625 524.25,407.3594 Q523.6563,407.0781 523.0313,407.0781 Q521.6875,407.0781 521,408.1563 Q520.3125,409.2188 520.3125,411.3125 Q520.3125,413.4063 521,414.4844 Q521.6875,415.5469 523.0313,415.5469 Q523.6563,415.5469 524.25,415.2813 Q524.8438,415 525.4688,414.4219 L525.4688,417.1406 Z " fill="#000000"/><text fill="#000000" font-family="sans-serif" font-size="14" lengthAdjust="spacing" textLength="62" x="536.5" y="416.3467">locations</text><line style="stroke:#181818;stroke-width:0.5;" x1="508.5" x2="600.5" y1="427.5" y2="427.5"/><line style="stroke:#181818;stroke-width:0.5;" x1="508.5" x2="600.5" y1="435.5" y2="435.5"/></g><!--link annotation-feedbacks to annotation-feedbacks--><g id="link_annotation-feedbacks_annotation-feedbacks"><path codeLine="6" d="M190.04,213.81 C210.27,215.28 225,220.51 225,229.5 C225,238.49 216.2542,243.2852 196.0242,244.7552 " fill="none" id="annotation-feedbacks-to-annotation-feedbacks" style="stroke:#181818;stroke-width:1.0;"/><polygon fill="#181818" points="190.04,245.19,199.3062,248.5272,195.0269,244.8276,198.7264,240.5483,190.04,245.19" style="stroke:#181818;stroke-width:1.0;"/><polygon fill="#000000" points="230.3624,234.5533,232.638,225.319,226.7756,225.745,230.3624,234.5533" style="stroke:#000000;stroke-width:1.0;"/><text fill="#000000" font-family="sans-serif" font-size="13" lengthAdjust="spacing" textLength="69" x="244" y="234.0669">annotation</text><text fill="#000000" font-family="sans-serif" font-size="13" lengthAdjust="spacing" textLength="8" x="197.9519" y="242.9452">1</text></g><!--link annotations to annotation-types--><g id="link_annotations_annotation-types"><path codeLine="11" d="M413.29,104.27 C385.09,136.34 355.5,181.25 355.5,228.5 C355.5,228.5 355.5,228.5 355.5,626.5 C355.5,669.91 362.1555,713.6925 368.0155,744.9825 " fill="none" id="annotations-to-annotation-types" style="stroke:#181818;stroke-width:1.0;"/><polygon fill="#181818" points="369.12,750.88,371.3949,741.2975,368.1996,745.9654,363.5316,742.7701,369.12,750.88" style="stroke:#181818;stroke-width:1.0;"/><polygon fill="#000000" points="360.1476,424.554,363.7167,415.7385,357.8535,415.3242,360.1476,424.554" style="stroke:#000000;stroke-width:1.0;"/><text fill="#000000" font-family="sans-serif" font-size="13" lengthAdjust="spacing" textLength="102" x="369.5" y="424.0669">annotation-type</text><text fill="#000000" font-family="sans-serif" font-size="13" lengthAdjust="spacing" textLength="8" x="358.9791" y="739.7584">1</text></g><!--link annotations to agents--><g id="link_annotations_agents"><path codeLine="12" d="M417.81,104.27 C409.09,118.86 404.37,135.22 410.5,151 C417.31,168.52 425.8758,180.2489 438.7758,193.0789 " fill="none" id="annotations-to-agents" style="stroke:#181818;stroke-width:1.0;"/><polygon fill="#181818" points="443.03,197.31,439.4695,188.1273,439.4849,193.7841,433.828,193.7995,443.03,197.31" style="stroke:#181818;stroke-width:1.0;"/><polygon fill="#000000" points="416.6488,147.4326,417.4309,137.9543,411.7103,139.3048,416.6488,147.4326" style="stroke:#000000;stroke-width:1.0;"/><text fill="#000000" font-family="sans-serif" font-size="13" lengthAdjust="spacing" textLength="46" x="424.5" y="147.0669">creator</text><text fill="#000000" font-family="sans-serif" font-size="13" lengthAdjust="spacing" textLength="8" x="426.6687" y="186.5468">1</text></g><!--link agents to annotations--><g id="link_agents_annotations"><path codeLine="17" d="M480.23,197.37 C479.3,178.91 477.8,155.08 475.5,134 C474.45,124.39 473.9459,120.0842 472.4859,110.3042 " fill="none" id="agents-to-annotations" style="stroke:#181818;stroke-width:1.0;"/><polygon fill="#181818" points="471.6,104.37,468.9727,113.862,472.3382,109.3152,476.885,112.6808,471.6,104.37" style="stroke:#181818;stroke-width:1.0;"/><polygon fill="#000000" points="481.057,137.5861,478.931,146.856,484.7857,146.3352,481.057,137.5861" style="stroke:#000000;stroke-width:1.0;"/><text fill="#000000" font-family="sans-serif" font-size="13" lengthAdjust="spacing" textLength="46" x="490.5" y="147.0669">creator</text><text fill="#000000" font-family="sans-serif" font-size="13" lengthAdjust="spacing" textLength="7" x="465.2181" y="124.0279">*</text></g><!--link annotations to besluits--><g id="link_annotations_besluits"><path codeLine="13" d="M520.71,96.83 C564.65,127.81 619.4958,166.4633 659.4758,194.6433 " fill="none" id="annotations-to-besluits" style="stroke:#181818;stroke-width:1.0;"/><polygon fill="#181818" points="664.38,198.1,659.3282,189.6455,660.2932,195.2194,654.7192,196.1844,664.38,198.1" style="stroke:#181818;stroke-width:1.0;"/><polygon fill="#000000" points="601.5868,145.4471,595.887,137.8337,592.5005,142.638,601.5868,145.4471" style="stroke:#000000;stroke-width:1.0;"/><text fill="#000000" font-family="sans-serif" font-size="13" lengthAdjust="spacing" textLength="37" x="606.5" y="147.0669">about</text><text fill="#000000" font-family="sans-serif" font-size="13" lengthAdjust="spacing" textLength="8" x="648.5758" y="188.7441">1</text></g><!--link besluits to annotations--><g id="link_besluits_annotations"><path codeLine="47" d="M687.59,180.86 C678.8,164.3 667.1,146.72 652.5,134 C614.79,101.16 567.0514,82.6304 526.5914,71.1304 " fill="none" id="besluits-to-annotations" style="stroke:#181818;stroke-width:1.0;"/><polygon fill="#181818" points="520.82,69.49,528.3835,75.7982,525.6295,70.857,530.5707,68.103,520.82,69.49" style="stroke:#181818;stroke-width:1.0;"/><polygon fill="#000000" points="667.3684,139.7505,673.1874,147.2731,676.4977,142.416,667.3684,139.7505" style="stroke:#000000;stroke-width:1.0;"/><text fill="#000000" font-family="sans-serif" font-size="13" lengthAdjust="spacing" textLength="76" x="680.5" y="147.0669">annotations</text><text fill="#000000" font-family="sans-serif" font-size="13" lengthAdjust="spacing" textLength="7" x="528.6126" y="67.4039">*</text></g><!--link annotations to annotation-feedbacks--><g id="link_annotations_annotation-feedbacks"><path codeLine="14" d="M406.12,74.86 C363.92,89.11 305.6,110.37 256.5,134 C227.99,147.72 203.0213,161.844 176.8413,177.824 " fill="none" id="annotations-to-annotation-feedbacks" style="stroke:#181818;stroke-width:1.0;"/><polygon fill="#181818" points="171.72,180.95,181.486,179.6752,175.9878,178.345,177.318,172.8468,171.72,180.95" style="stroke:#181818;stroke-width:1.0;"/><polygon fill="#000000" points="256.9388,144.6147,266.394,143.5903,263.9861,138.2283,256.9388,144.6147" style="stroke:#000000;stroke-width:1.0;"/><text fill="#000000" font-family="sans-serif" font-size="13" lengthAdjust="spacing" textLength="58" x="270.5" y="147.0669">feedback</text><text fill="#000000" font-family="sans-serif" font-size="13" lengthAdjust="spacing" textLength="7" x="174.9601" y="169.8023">*</text></g><!--link aanduidingsobjects to addresses--><g id="link_aanduidingsobjects_addresses"><path codeLine="24" d="M709.84,484.08 C704.16,499.96 697.07,516.57 688.5,531 C682.43,541.23 678.9048,546.6681 671.1848,556.2481 " fill="none" id="aanduidingsobjects-to-addresses" style="stroke:#181818;stroke-width:1.0;"/><polygon fill="#181818" points="667.42,560.92,676.1818,556.4221,670.5573,557.0268,669.9526,551.4023,667.42,560.92" style="stroke:#181818;stroke-width:1.0;"/><polygon fill="#000000" points="699.1392,526.974,706.0006,520.3883,700.8192,517.613,699.1392,526.974" style="stroke:#000000;stroke-width:1.0;"/><text fill="#000000" font-family="sans-serif" font-size="13" lengthAdjust="spacing" textLength="51" x="710.5" y="527.0669">address</text><text fill="#000000" font-family="sans-serif" font-size="13" lengthAdjust="spacing" textLength="8" x="665.8644" y="550.0839">1</text></g><!--link addresses to aanduidingsobjects--><g id="link_addresses_aanduidingsobjects"><path codeLine="35" d="M589.26,560.77 C588.4,544.81 590.22,528.2 597.5,514 C603.4,502.5 617.2539,490.4497 638.7639,475.3997 " fill="none" id="addresses-to-aanduidingsobjects" style="stroke:#181818;stroke-width:1.0;"/><polygon fill="#181818" points="643.68,471.96,634.0127,473.8421,639.5832,474.8264,638.5989,480.397,643.68,471.96" style="stroke:#181818;stroke-width:1.0;"/><polygon fill="#000000" points="605.0082,518.241,597.9284,524.5915,603.0132,527.54,605.0082,518.241" style="stroke:#000000;stroke-width:1.0;"/><text fill="#000000" font-family="sans-serif" font-size="13" lengthAdjust="spacing" textLength="68" x="611.5" y="527.0669">references</text><text fill="#000000" font-family="sans-serif" font-size="13" lengthAdjust="spacing" textLength="7" x="628.9031" y="473.0155">*</text></g><!--link aanduidingsobjects to concepts--><g id="link_aanduidingsobjects_concepts"><path codeLine="25" d="M776.65,484.12 C783.11,493.85 789.28,503.99 794.5,514 C807.76,539.44 816.5278,564.6195 823.2778,587.2895 " fill="none" id="aanduidingsobjects-to-concepts" style="stroke:#181818;stroke-width:1.0;"/><polygon fill="#181818" points="824.99,593.04,826.2553,583.2728,823.5632,588.2479,818.588,585.5557,824.99,593.04" style="stroke:#181818;stroke-width:1.0;"/><polygon fill="#000000" points="807.5592,527.1227,806.5122,517.6699,801.1559,520.0907,807.5592,527.1227" style="stroke:#000000;stroke-width:1.0;"/><text fill="#000000" font-family="sans-serif" font-size="13" lengthAdjust="spacing" textLength="54" x="814.5" y="527.0669">typology</text><text fill="#000000" font-family="sans-serif" font-size="13" lengthAdjust="spacing" textLength="8" x="814.6053" y="582.4739">1</text></g><!--link aanduidingsobjects to besluits--><g id="link_aanduidingsobjects_besluits"><path codeLine="26" d="M650.42,354.76 C643.19,345.54 636.93,335.57 632.5,325 C621.78,299.4 637.545,278.7134 659.785,261.1134 " fill="none" id="aanduidingsobjects-to-besluits" style="stroke:#181818;stroke-width:1.0;"/><polygon fill="#181818" points="664.49,257.39,654.9503,259.8384,660.5692,260.4928,659.9148,266.1117,664.49,257.39" style="stroke:#181818;stroke-width:1.0;"/><polygon fill="#000000" points="637.9975,311.5912,634.1731,320.299,640.0218,320.8839,637.9975,311.5912" style="stroke:#000000;stroke-width:1.0;"/><text fill="#000000" font-family="sans-serif" font-size="13" lengthAdjust="spacing" textLength="59" x="646.5" y="321.0669">decisions</text><text fill="#000000" font-family="sans-serif" font-size="13" lengthAdjust="spacing" textLength="7" x="649.4961" y="257.9822">*</text></g><!--link besluits to aanduidingsobjects--><g id="link_besluits_aanduidingsobjects"><path codeLine="46" d="M712.6,278.43 C715.06,301.6 717.4265,323.7635 720.0765,348.7235 " fill="none" id="besluits-to-aanduidingsobjects" style="stroke:#181818;stroke-width:1.0;"/><polygon fill="#181818" points="720.71,354.69,723.7375,345.318,720.1821,349.7179,715.7822,346.1626,720.71,354.69" style="stroke:#181818;stroke-width:1.0;"/><polygon fill="#000000" points="723.0288,321.5384,724.9946,312.2332,719.1497,312.8548,723.0288,321.5384" style="stroke:#000000;stroke-width:1.0;"/><text fill="#000000" font-family="sans-serif" font-size="13" lengthAdjust="spacing" textLength="116" x="731.5" y="321.0669">aanduidingsobject</text><text fill="#000000" font-family="sans-serif" font-size="13" lengthAdjust="spacing" textLength="8" x="711.5298" y="343.8288">1</text></g><!--reverse link locations to addresses--><g id="link_locations_addresses"><path codeLine="36" d="M557.113,461.612 C558.763,484.172 561.04,501.37 568.5,531 C570.96,540.78 574.16,550.93 577.63,560.78 " fill="none" id="locations-backto-addresses" style="stroke:#181818;stroke-width:1.0;"/><polygon fill="none" points="555.8,443.66,551.129,462.0497,563.097,461.1744,555.8,443.66" style="stroke:#181818;stroke-width:1.0;"/></g><!--reverse link concepts to annotation-types--><g id="link_concepts_annotation-types"><path codeLine="40" d="M768.5446,657.6431 C741.1846,670.3931 722.51,678.28 690.5,690 C609.72,719.58 514.64,746.27 450.24,763.19 " fill="none" id="concepts-backto-annotation-types" style="stroke:#181818;stroke-width:1.0;"/><polygon fill="none" points="784.86,650.04,766.0102,652.2047,771.079,663.0816,784.86,650.04" style="stroke:#181818;stroke-width:1.0;"/></g><!--link besluits to concepts--><g id="link_besluits_concepts"><path codeLine="45" d="M750.69,240.85 C785.31,251.56 832.02,271.93 856.5,308 C912.41,390.36 899.22,433.85 877.5,531 C872.61,552.89 864.8649,570.4182 855.2949,588.0282 " fill="none" id="besluits-to-concepts" style="stroke:#181818;stroke-width:1.0;"/><polygon fill="#181818" points="852.43,593.3,860.2419,587.3022,854.8174,588.9068,853.2128,583.4823,852.43,593.3" style="stroke:#181818;stroke-width:1.0;"/><polygon fill="#000000" points="901.9425,424.3538,902.147,414.8455,896.5191,416.5412,901.9425,424.3538" style="stroke:#000000;stroke-width:1.0;"/><text fill="#000000" font-family="sans-serif" font-size="13" lengthAdjust="spacing" textLength="26" x="909.5" y="424.0669">kind</text><text fill="#000000" font-family="sans-serif" font-size="13" lengthAdjust="spacing" textLength="8" x="847.3693" y="582.5348">1</text></g><!--SRC=[VLJBRiCW4BpxAr2EaJZqMbNvYNu1Xasq3MOHu5IM-l4b60S_83Vlx8FP6R27m8mOm5iXuHkiS2AGOuOCT58Bxzb964D112J3hm2g5_BkJrqTPfzi2TeLyGWqjtPUEX01LAk0ymixVPnOix_WxCAEMsp9fuwUr7G0ApGIFb30HmftgHgnC5dOaKhOarch-mOc50RHZNPj3rwFE5UBdiRGg3s_aMi9rcBD5BeLb-SbAN5bw9xnCaeODQAAXdlgVq3EOuzWR0uODBII2hnqQBFirH9KaHnU4LohmeUfVKBYtXnVx57AWVVPrJcOLN_N9Sb8i7dFoPAcs_I-wxopLu54_zHv9UvhQhSz80cv6F3Ysssv3wD1YLPe31FFzgxprj43uz0Tx8C32DK6ya5eBadjC_tekHc7FZbJ4kKMLGrnS0K7aS6ihoQvNBIlFyutc-LTIqdbvpK_nQxwElFLAoBc4mxTUUpBc6xZKHwpXlBtw72BA_erceHQezNRSaUZqlwLkhfk1xJMNdcygp1s_0C0]--></g></svg>