<?xml version="1.0" encoding="us-ascii" standalone="no"?><svg xmlns="http://www.w3.org/2000/svg" xmlns:xlink="http://www.w3.org/1999/xlink" contentStyleType="text/css" height="648px" preserveAspectRatio="none" style="width:1027px;height:648px;background:#FFFFFF;" version="1.1" viewBox="0 0 1027 648" width="1027px" zoomAndPan="magnify"><defs/><g><!--class annotation-feedbacks--><g id="elem_annotation-feedbacks"><rect codeLine="2" fill="#F1F1F1" height="80.5938" id="annotation-feedbacks" rx="2.5" ry="2.5" style="stroke:#181818;stroke-width:0.5;" width="183" x="7" y="205"/><ellipse cx="22" cy="221" fill="#ADD1B2" rx="11" ry="11" style="stroke:#181818;stroke-width:1.0;"/><path d="M24.9688,226.6406 Q24.3906,226.9375 23.75,227.0781 Q23.1094,227.2344 22.4063,227.2344 Q19.9063,227.2344 18.5781,225.5938 Q17.2656,223.9375 17.2656,220.8125 Q17.2656,217.6875 18.5781,216.0313 Q19.9063,214.375 22.4063,214.375 Q23.1094,214.375 23.75,214.5313 Q24.4063,214.6875 24.9688,214.9844 L24.9688,217.7031 Q24.3438,217.125 23.75,216.8594 Q23.1563,216.5781 22.5313,216.5781 Q21.1875,216.5781 20.5,217.6563 Q19.8125,218.7188 19.8125,220.8125 Q19.8125,222.9063 20.5,223.9844 Q21.1875,225.0469 22.5313,225.0469 Q23.1563,225.0469 23.75,224.7813 Q24.3438,224.5 24.9688,223.9219 L24.9688,226.6406 Z " fill="#000000"/><text fill="#000000" font-family="sans-serif" font-size="14" lengthAdjust="spacing" textLength="151" x="36" y="225.8467">annotation-feedbacks</text><line style="stroke:#181818;stroke-width:0.5;" x1="8" x2="189" y1="237" y2="237"/><text fill="#000000" font-family="sans-serif" font-size="14" lengthAdjust="spacing" textLength="64" x="13" y="253.9951">feedback</text><text fill="#000000" font-family="sans-serif" font-size="14" lengthAdjust="spacing" textLength="39" x="13" y="270.292">rating</text><line style="stroke:#181818;stroke-width:0.5;" x1="8" x2="189" y1="277.5938" y2="277.5938"/></g><!--class annotations--><g id="elem_annotations"><rect codeLine="7" fill="#F1F1F1" height="96.8906" id="annotations" rx="2.5" ry="2.5" style="stroke:#181818;stroke-width:0.5;" width="114" x="327.5" y="7"/><ellipse cx="342.5" cy="23" fill="#ADD1B2" rx="11" ry="11" style="stroke:#181818;stroke-width:1.0;"/><path d="M345.4688,28.6406 Q344.8906,28.9375 344.25,29.0781 Q343.6094,29.2344 342.9063,29.2344 Q340.4063,29.2344 339.0781,27.5938 Q337.7656,25.9375 337.7656,22.8125 Q337.7656,19.6875 339.0781,18.0313 Q340.4063,16.375 342.9063,16.375 Q343.6094,16.375 344.25,16.5313 Q344.9063,16.6875 345.4688,16.9844 L345.4688,19.7031 Q344.8438,19.125 344.25,18.8594 Q343.6563,18.5781 343.0313,18.5781 Q341.6875,18.5781 341,19.6563 Q340.3125,20.7188 340.3125,22.8125 Q340.3125,24.9063 341,25.9844 Q341.6875,27.0469 343.0313,27.0469 Q343.6563,27.0469 344.25,26.7813 Q344.8438,26.5 345.4688,25.9219 L345.4688,28.6406 Z " fill="#000000"/><text fill="#000000" font-family="sans-serif" font-size="14" lengthAdjust="spacing" textLength="82" x="356.5" y="27.8467">annotations</text><line style="stroke:#181818;stroke-width:0.5;" x1="328.5" x2="440.5" y1="39" y2="39"/><text fill="#000000" font-family="sans-serif" font-size="14" lengthAdjust="spacing" textLength="34" x="333.5" y="55.9951">body</text><text fill="#000000" font-family="sans-serif" font-size="14" lengthAdjust="spacing" textLength="53" x="333.5" y="72.292">created</text><text fill="#000000" font-family="sans-serif" font-size="14" lengthAdjust="spacing" textLength="71" x="333.5" y="88.5889">motivation</text><line style="stroke:#181818;stroke-width:0.5;" x1="328.5" x2="440.5" y1="95.8906" y2="95.8906"/></g><!--class annotation-types--><g id="elem_annotation-types"><rect codeLine="37" fill="#F1F1F1" height="64.2969" id="annotation-types" rx="2.5" ry="2.5" style="stroke:#181818;stroke-width:0.5;" width="149" x="301" y="577"/><ellipse cx="316" cy="593" fill="#ADD1B2" rx="11" ry="11" style="stroke:#181818;stroke-width:1.0;"/><path d="M318.9688,598.6406 Q318.3906,598.9375 317.75,599.0781 Q317.1094,599.2344 316.4063,599.2344 Q313.9063,599.2344 312.5781,597.5938 Q311.2656,595.9375 311.2656,592.8125 Q311.2656,589.6875 312.5781,588.0313 Q313.9063,586.375 316.4063,586.375 Q317.1094,586.375 317.75,586.5313 Q318.4063,586.6875 318.9688,586.9844 L318.9688,589.7031 Q318.3438,589.125 317.75,588.8594 Q317.1563,588.5781 316.5313,588.5781 Q315.1875,588.5781 314.5,589.6563 Q313.8125,590.7188 313.8125,592.8125 Q313.8125,594.9063 314.5,595.9844 Q315.1875,597.0469 316.5313,597.0469 Q317.1563,597.0469 317.75,596.7813 Q318.3438,596.5 318.9688,595.9219 L318.9688,598.6406 Z " fill="#000000"/><text fill="#000000" font-family="sans-serif" font-size="14" lengthAdjust="spacing" textLength="117" x="330" y="597.8467">annotation-types</text><line style="stroke:#181818;stroke-width:0.5;" x1="302" x2="449" y1="609" y2="609"/><text fill="#000000" font-family="sans-serif" font-size="14" lengthAdjust="spacing" textLength="25" x="307" y="625.9951">title</text><line style="stroke:#181818;stroke-width:0.5;" x1="302" x2="449" y1="633.2969" y2="633.2969"/></g><!--class agents--><g id="elem_agents"><rect codeLine="15" fill="#F1F1F1" height="64.2969" id="agents" rx="2.5" ry="2.5" style="stroke:#181818;stroke-width:0.5;" width="80" x="419.5" y="213.5"/><ellipse cx="434.5" cy="229.5" fill="#ADD1B2" rx="11" ry="11" style="stroke:#181818;stroke-width:1.0;"/><path d="M437.4688,235.1406 Q436.8906,235.4375 436.25,235.5781 Q435.6094,235.7344 434.9063,235.7344 Q432.4063,235.7344 431.0781,234.0938 Q429.7656,232.4375 429.7656,229.3125 Q429.7656,226.1875 431.0781,224.5313 Q432.4063,222.875 434.9063,222.875 Q435.6094,222.875 436.25,223.0313 Q436.9063,223.1875 437.4688,223.4844 L437.4688,226.2031 Q436.8438,225.625 436.25,225.3594 Q435.6563,225.0781 435.0313,225.0781 Q433.6875,225.0781 433,226.1563 Q432.3125,227.2188 432.3125,229.3125 Q432.3125,231.4063 433,232.4844 Q433.6875,233.5469 435.0313,233.5469 Q435.6563,233.5469 436.25,233.2813 Q436.8438,233 437.4688,232.4219 L437.4688,235.1406 Z " fill="#000000"/><text fill="#000000" font-family="sans-serif" font-size="14" lengthAdjust="spacing" textLength="48" x="448.5" y="234.3467">agents</text><line style="stroke:#181818;stroke-width:0.5;" x1="420.5" x2="498.5" y1="245.5" y2="245.5"/><text fill="#000000" font-family="sans-serif" font-size="14" lengthAdjust="spacing" textLength="39" x="425.5" y="262.4951">name</text><line style="stroke:#181818;stroke-width:0.5;" x1="420.5" x2="498.5" y1="269.7969" y2="269.7969"/></g><!--class besluiten--><g id="elem_besluiten"><rect codeLine="40" fill="#F1F1F1" height="64.2969" id="besluiten" rx="2.5" ry="2.5" style="stroke:#181818;stroke-width:0.5;" width="96" x="556.5" y="213.5"/><ellipse cx="571.5" cy="229.5" fill="#ADD1B2" rx="11" ry="11" style="stroke:#181818;stroke-width:1.0;"/><path d="M574.4688,235.1406 Q573.8906,235.4375 573.25,235.5781 Q572.6094,235.7344 571.9063,235.7344 Q569.4063,235.7344 568.0781,234.0938 Q566.7656,232.4375 566.7656,229.3125 Q566.7656,226.1875 568.0781,224.5313 Q569.4063,222.875 571.9063,222.875 Q572.6094,222.875 573.25,223.0313 Q573.9063,223.1875 574.4688,223.4844 L574.4688,226.2031 Q573.8438,225.625 573.25,225.3594 Q572.6563,225.0781 572.0313,225.0781 Q570.6875,225.0781 570,226.1563 Q569.3125,227.2188 569.3125,229.3125 Q569.3125,231.4063 570,232.4844 Q570.6875,233.5469 572.0313,233.5469 Q572.6563,233.5469 573.25,233.2813 Q573.8438,233 574.4688,232.4219 L574.4688,235.1406 Z " fill="#000000"/><text fill="#000000" font-family="sans-serif" font-size="14" lengthAdjust="spacing" textLength="64" x="585.5" y="234.3467">besluiten</text><line style="stroke:#181818;stroke-width:0.5;" x1="557.5" x2="651.5" y1="245.5" y2="245.5"/><text fill="#000000" font-family="sans-serif" font-size="14" lengthAdjust="spacing" textLength="25" x="562.5" y="262.4951">title</text><line style="stroke:#181818;stroke-width:0.5;" x1="557.5" x2="651.5" y1="269.7969" y2="269.7969"/></g><!--class aanduidingsobjects--><g id="elem_aanduidingsobjects"><rect codeLine="18" fill="#F1F1F1" height="129.4844" id="aanduidingsobjects" rx="2.5" ry="2.5" style="stroke:#181818;stroke-width:0.5;" width="167" x="699" y="181"/><ellipse cx="714" cy="197" fill="#ADD1B2" rx="11" ry="11" style="stroke:#181818;stroke-width:1.0;"/><path d="M716.9688,202.6406 Q716.3906,202.9375 715.75,203.0781 Q715.1094,203.2344 714.4063,203.2344 Q711.9063,203.2344 710.5781,201.5938 Q709.2656,199.9375 709.2656,196.8125 Q709.2656,193.6875 710.5781,192.0313 Q711.9063,190.375 714.4063,190.375 Q715.1094,190.375 715.75,190.5313 Q716.4063,190.6875 716.9688,190.9844 L716.9688,193.7031 Q716.3438,193.125 715.75,192.8594 Q715.1563,192.5781 714.5313,192.5781 Q713.1875,192.5781 712.5,193.6563 Q711.8125,194.7188 711.8125,196.8125 Q711.8125,198.9063 712.5,199.9844 Q713.1875,201.0469 714.5313,201.0469 Q715.1563,201.0469 715.75,200.7813 Q716.3438,200.5 716.9688,199.9219 L716.9688,202.6406 Z " fill="#000000"/><text fill="#000000" font-family="sans-serif" font-size="14" lengthAdjust="spacing" textLength="135" x="728" y="201.8467">aanduidingsobjects</text><line style="stroke:#181818;stroke-width:0.5;" x1="700" x2="865" y1="213" y2="213"/><text fill="#000000" font-family="sans-serif" font-size="14" lengthAdjust="spacing" textLength="25" x="705" y="229.9951">title</text><text fill="#000000" font-family="sans-serif" font-size="14" lengthAdjust="spacing" textLength="77" x="705" y="246.292">description</text><text fill="#000000" font-family="sans-serif" font-size="14" lengthAdjust="spacing" textLength="59" x="705" y="262.5889">identifier</text><text fill="#000000" font-family="sans-serif" font-size="14" lengthAdjust="spacing" textLength="32" x="705" y="278.8857">style</text><text fill="#000000" font-family="sans-serif" font-size="14" lengthAdjust="spacing" textLength="56" x="705" y="295.1826">creation</text><line style="stroke:#181818;stroke-width:0.5;" x1="700" x2="865" y1="302.4844" y2="302.4844"/></g><!--class address-representations--><g id="elem_address-representations"><rect codeLine="28" fill="#F1F1F1" height="129.4844" id="address-representations" rx="2.5" ry="2.5" style="stroke:#181818;stroke-width:0.5;" width="203" x="787" y="387"/><ellipse cx="802" cy="403" fill="#ADD1B2" rx="11" ry="11" style="stroke:#181818;stroke-width:1.0;"/><path d="M804.9688,408.6406 Q804.3906,408.9375 803.75,409.0781 Q803.1094,409.2344 802.4063,409.2344 Q799.9063,409.2344 798.5781,407.5938 Q797.2656,405.9375 797.2656,402.8125 Q797.2656,399.6875 798.5781,398.0313 Q799.9063,396.375 802.4063,396.375 Q803.1094,396.375 803.75,396.5313 Q804.4063,396.6875 804.9688,396.9844 L804.9688,399.7031 Q804.3438,399.125 803.75,398.8594 Q803.1563,398.5781 802.5313,398.5781 Q801.1875,398.5781 800.5,399.6563 Q799.8125,400.7188 799.8125,402.8125 Q799.8125,404.9063 800.5,405.9844 Q801.1875,407.0469 802.5313,407.0469 Q803.1563,407.0469 803.75,406.7813 Q804.3438,406.5 804.9688,405.9219 L804.9688,408.6406 Z " fill="#000000"/><text fill="#000000" font-family="sans-serif" font-size="14" lengthAdjust="spacing" textLength="171" x="816" y="407.8467">address-representations</text><line style="stroke:#181818;stroke-width:0.5;" x1="788" x2="989" y1="419" y2="419"/><text fill="#000000" font-family="sans-serif" font-size="14" lengthAdjust="spacing" textLength="124" x="793" y="435.9951">municipality-name</text><text fill="#000000" font-family="sans-serif" font-size="14" lengthAdjust="spacing" textLength="59" x="793" y="452.292">province</text><text fill="#000000" font-family="sans-serif" font-size="14" lengthAdjust="spacing" textLength="85" x="793" y="468.5889">street-name</text><text fill="#000000" font-family="sans-serif" font-size="14" lengthAdjust="spacing" textLength="82" x="793" y="484.8857">postal-code</text><text fill="#000000" font-family="sans-serif" font-size="14" lengthAdjust="spacing" textLength="85" x="793" y="501.1826">bus-number</text><line style="stroke:#181818;stroke-width:0.5;" x1="788" x2="989" y1="508.4844" y2="508.4844"/></g><!--class concepts--><g id="elem_concepts"><rect codeLine="26" fill="#F1F1F1" height="64.2969" id="concepts" rx="2.5" ry="2.5" style="stroke:#181818;stroke-width:0.5;" width="97" x="544" y="419.5"/><ellipse cx="559" cy="435.5" fill="#ADD1B2" rx="11" ry="11" style="stroke:#181818;stroke-width:1.0;"/><path d="M561.9688,441.1406 Q561.3906,441.4375 560.75,441.5781 Q560.1094,441.7344 559.4063,441.7344 Q556.9063,441.7344 555.5781,440.0938 Q554.2656,438.4375 554.2656,435.3125 Q554.2656,432.1875 555.5781,430.5313 Q556.9063,428.875 559.4063,428.875 Q560.1094,428.875 560.75,429.0313 Q561.4063,429.1875 561.9688,429.4844 L561.9688,432.2031 Q561.3438,431.625 560.75,431.3594 Q560.1563,431.0781 559.5313,431.0781 Q558.1875,431.0781 557.5,432.1563 Q556.8125,433.2188 556.8125,435.3125 Q556.8125,437.4063 557.5,438.4844 Q558.1875,439.5469 559.5313,439.5469 Q560.1563,439.5469 560.75,439.2813 Q561.3438,439 561.9688,438.4219 L561.9688,441.1406 Z " fill="#000000"/><text fill="#000000" font-family="sans-serif" font-size="14" lengthAdjust="spacing" textLength="65" x="573" y="440.3467">concepts</text><line style="stroke:#181818;stroke-width:0.5;" x1="545" x2="640" y1="451.5" y2="451.5"/><text fill="#000000" font-family="sans-serif" font-size="14" lengthAdjust="spacing" textLength="25" x="550" y="468.4951">title</text><line style="stroke:#181818;stroke-width:0.5;" x1="545" x2="640" y1="475.7969" y2="475.7969"/></g><!--class NIL--><g id="elem_NIL"><rect codeLine="36" fill="#F1F1F1" height="48" id="NIL" rx="2.5" ry="2.5" style="stroke:#181818;stroke-width:0.5;" width="52" x="968.5" y="221.5"/><ellipse cx="983.5" cy="237.5" fill="#ADD1B2" rx="11" ry="11" style="stroke:#181818;stroke-width:1.0;"/><path d="M986.4688,243.1406 Q985.8906,243.4375 985.25,243.5781 Q984.6094,243.7344 983.9063,243.7344 Q981.4063,243.7344 980.0781,242.0938 Q978.7656,240.4375 978.7656,237.3125 Q978.7656,234.1875 980.0781,232.5313 Q981.4063,230.875 983.9063,230.875 Q984.6094,230.875 985.25,231.0313 Q985.9063,231.1875 986.4688,231.4844 L986.4688,234.2031 Q985.8438,233.625 985.25,233.3594 Q984.6563,233.0781 984.0313,233.0781 Q982.6875,233.0781 982,234.1563 Q981.3125,235.2188 981.3125,237.3125 Q981.3125,239.4063 982,240.4844 Q982.6875,241.5469 984.0313,241.5469 Q984.6563,241.5469 985.25,241.2813 Q985.8438,241 986.4688,240.4219 L986.4688,243.1406 Z " fill="#000000"/><text fill="#000000" font-family="sans-serif" font-size="14" lengthAdjust="spacing" textLength="20" x="997.5" y="242.3467">NIL</text><line style="stroke:#181818;stroke-width:0.5;" x1="969.5" x2="1019.5" y1="253.5" y2="253.5"/><line style="stroke:#181818;stroke-width:0.5;" x1="969.5" x2="1019.5" y1="261.5" y2="261.5"/></g><!--link annotation-feedbacks to annotation-feedbacks--><g id="link_annotation-feedbacks_annotation-feedbacks"><path codeLine="5" d="M190.04,226.89 C210.27,228.64 225,234.84 225,245.5 C225,256.16 216.2477,261.8429 196.0177,263.5929 " fill="none" id="annotation-feedbacks-to-annotation-feedbacks" style="stroke:#181818;stroke-width:1.0;"/><polygon fill="#181818" points="190.04,264.11,199.3512,267.3195,195.0214,263.6791,198.6618,259.3492,190.04,264.11" style="stroke:#181818;stroke-width:1.0;"/><polygon fill="#000000" points="230.4309,250.5478,232.5794,241.2831,226.7234,241.7897,230.4309,250.5478" style="stroke:#000000;stroke-width:1.0;"/><text fill="#000000" font-family="sans-serif" font-size="13" lengthAdjust="spacing" textLength="69" x="244" y="250.0669">annotation</text><text fill="#000000" font-family="sans-serif" font-size="13" lengthAdjust="spacing" textLength="8" x="197.9519" y="262.1193">1</text></g><!--reverse link annotations to annotation-feedbacks--><g id="link_annotations_annotation-feedbacks"><path codeLine="6" d="M310.0402,76.3791 C269.2902,88.6991 231.87,103.94 190.5,134 C164.04,153.22 140.57,181.7 123.96,204.94 " fill="none" id="annotations-backto-annotation-feedbacks" style="stroke:#181818;stroke-width:1.0;"/><polygon fill="none" points="327.27,71.17,308.3039,70.6358,311.7766,82.1224,327.27,71.17" style="stroke:#181818;stroke-width:1.0;"/></g><!--link annotations to annotation-feedbacks--><g id="link_annotations_annotation-feedbacks"><path codeLine="14" d="M327.29,90.04 C305,103.4 279.36,119.11 256.5,134 C221.58,156.75 188.1464,180.0182 157.9864,201.5082 " fill="none" id="annotations-to-annotation-feedbacks" style="stroke:#181818;stroke-width:1.0;"/><polygon fill="#181818" points="153.1,204.99,162.7508,203.025,157.172,202.0885,158.1085,196.5097,153.1,204.99" style="stroke:#181818;stroke-width:1.0;"/><polygon fill="#000000" points="257.3239,145.3159,266.4947,142.7967,263.2624,137.8873,257.3239,145.3159" style="stroke:#000000;stroke-width:1.0;"/><text fill="#000000" font-family="sans-serif" font-size="13" lengthAdjust="spacing" textLength="58" x="270.5" y="147.0669">feedback</text><text fill="#000000" font-family="sans-serif" font-size="13" lengthAdjust="spacing" textLength="7" x="154.8828" y="193.8515">*</text></g><!--link annotations to annotation-types--><g id="link_annotations_annotation-types"><path codeLine="11" d="M383.72,104.48 C381.91,214.94 377.6079,478.7808 376.1079,570.7208 " fill="none" id="annotations-to-annotation-types" style="stroke:#181818;stroke-width:1.0;"/><polygon fill="#181818" points="376.01,576.72,380.1563,567.7864,376.0916,571.7207,372.1573,567.6559,376.01,576.72" style="stroke:#181818;stroke-width:1.0;"/><polygon fill="#000000" points="384.4184,353.5657,387.5046,344.5698,381.6275,344.4739,384.4184,353.5657" style="stroke:#000000;stroke-width:1.0;"/><text fill="#000000" font-family="sans-serif" font-size="13" lengthAdjust="spacing" textLength="102" x="393.5" y="353.0669">annotation-type</text><text fill="#000000" font-family="sans-serif" font-size="13" lengthAdjust="spacing" textLength="8" x="367.3229" y="565.9391">1</text></g><!--link annotations to agents--><g id="link_annotations_agents"><path codeLine="12" d="M395.51,104.26 C399.57,119.43 404.63,136.12 410.5,151 C418.97,172.48 428.029,190.2402 438.039,208.0402 " fill="none" id="annotations-to-agents" style="stroke:#181818;stroke-width:1.0;"/><polygon fill="#181818" points="440.98,213.27,440.055,203.4647,438.5292,208.9119,433.082,207.386,440.98,213.27" style="stroke:#181818;stroke-width:1.0;"/><polygon fill="#000000" points="417.396,147.193,416.6856,137.709,411.2467,139.9378,417.396,147.193" style="stroke:#000000;stroke-width:1.0;"/><text fill="#000000" font-family="sans-serif" font-size="13" lengthAdjust="spacing" textLength="46" x="424.5" y="147.0669">creator</text><text fill="#000000" font-family="sans-serif" font-size="13" lengthAdjust="spacing" textLength="8" x="428.5464" y="202.4989">1</text></g><!--link agents to annotations--><g id="link_agents_annotations"><path codeLine="17" d="M473.06,213.14 C480.86,190.25 487.04,158.99 475.5,134 C468.02,117.8 459.865,107.622 446.265,96.082 " fill="none" id="agents-to-annotations" style="stroke:#181818;stroke-width:1.0;"/><polygon fill="#181818" points="441.69,92.2,445.9644,101.0729,445.5025,95.435,451.1404,94.973,441.69,92.2" style="stroke:#181818;stroke-width:1.0;"/><polygon fill="#000000" points="484.3843,137.6925,483.5378,147.1653,489.2674,145.8537,484.3843,137.6925" style="stroke:#000000;stroke-width:1.0;"/><text fill="#000000" font-family="sans-serif" font-size="13" lengthAdjust="spacing" textLength="46" x="494.5" y="147.0669">creator</text><text fill="#000000" font-family="sans-serif" font-size="13" lengthAdjust="spacing" textLength="7" x="449.4659" y="93.0237">*</text></g><!--link annotations to besluiten--><g id="link_annotations_besluiten"><path codeLine="13" d="M441.71,72.74 C476.37,84.96 519.51,104.69 549.5,134 C572.03,156.02 584.8332,183.5285 593.3432,207.7785 " fill="none" id="annotations-to-besluiten" style="stroke:#181818;stroke-width:1.0;"/><polygon fill="#181818" points="595.33,213.44,596.1242,203.6232,593.6743,208.7221,588.5755,206.2723,595.33,213.44" style="stroke:#181818;stroke-width:1.0;"/><polygon fill="#000000" points="571.2339,145.8917,566.4337,137.6814,562.5246,142.0709,571.2339,145.8917" style="stroke:#000000;stroke-width:1.0;"/><text fill="#000000" font-family="sans-serif" font-size="13" lengthAdjust="spacing" textLength="37" x="576.5" y="147.0669">about</text><text fill="#000000" font-family="sans-serif" font-size="13" lengthAdjust="spacing" textLength="8" x="584.6137" y="202.3307">1</text></g><!--link aanduidingsobjects to address-representations--><g id="link_aanduidingsobjects_address-representations"><path codeLine="24" d="M771.12,310.15 C770.85,326.03 772.89,342.61 779.5,357 C784.45,367.76 787.384,373.2128 795.284,382.3428 " fill="none" id="aanduidingsobjects-to-address-representations" style="stroke:#181818;stroke-width:1.0;"/><polygon fill="#181818" points="799.21,386.88,796.3459,377.4568,795.9383,383.099,790.2962,382.6915,799.21,386.88" style="stroke:#181818;stroke-width:1.0;"/><polygon fill="#000000" points="786.087,353.3079,786.003,343.7977,780.4291,345.6633,786.087,353.3079" style="stroke:#000000;stroke-width:1.0;"/><text fill="#000000" font-family="sans-serif" font-size="13" lengthAdjust="spacing" textLength="51" x="793.5" y="353.0669">address</text><text fill="#000000" font-family="sans-serif" font-size="13" lengthAdjust="spacing" textLength="8" x="781.0064" y="376.0395">1</text></g><!--link address-representations to aanduidingsobjects--><g id="link_address-representations_aanduidingsobjects"><path codeLine="34" d="M869.52,386.96 C863.9,371.24 857.16,354.7 849.5,340 C844.28,329.99 841.4287,324.8486 834.9687,315.1186 " fill="none" id="address-representations-to-aanduidingsobjects" style="stroke:#181818;stroke-width:1.0;"/><polygon fill="#181818" points="831.65,310.12,833.2957,319.8304,834.4156,314.2855,839.9605,315.4054,831.65,310.12" style="stroke:#181818;stroke-width:1.0;"/><polygon fill="#000000" points="858.3329,344.0604,859.6047,353.4856,864.9018,350.938,858.3329,344.0604" style="stroke:#000000;stroke-width:1.0;"/><text fill="#000000" font-family="sans-serif" font-size="13" lengthAdjust="spacing" textLength="68" x="869.5" y="353.0669">references</text><text fill="#000000" font-family="sans-serif" font-size="13" lengthAdjust="spacing" textLength="7" x="829.9283" y="330.5054">*</text></g><!--link aanduidingsobjects to concepts--><g id="link_aanduidingsobjects_concepts"><path codeLine="25" d="M723.16,310.21 C689.3,346.57 652.4596,386.1296 625.5396,415.0296 " fill="none" id="aanduidingsobjects-to-concepts" style="stroke:#181818;stroke-width:1.0;"/><polygon fill="#181818" points="621.45,419.42,630.5113,415.5608,624.858,415.7614,624.6575,410.1081,621.45,419.42" style="stroke:#181818;stroke-width:1.0;"/><polygon fill="#000000" points="694.0924,352.2254,702.4075,347.6092,698.1062,343.6033,694.0924,352.2254" style="stroke:#000000;stroke-width:1.0;"/><text fill="#000000" font-family="sans-serif" font-size="13" lengthAdjust="spacing" textLength="54" x="706.5" y="353.0669">typology</text><text fill="#000000" font-family="sans-serif" font-size="13" lengthAdjust="spacing" textLength="8" x="618.5959" y="408.3066">1</text></g><!--reverse link NIL to address-representations--><g id="link_NIL_address-representations"><path codeLine="35" d="M978.8833,286.5418 C969.8833,309.2318 961.83,327.73 946.5,357 C941.36,366.81 935.57,376.98 929.69,386.84 " fill="none" id="NIL-backto-address-representations" style="stroke:#181818;stroke-width:1.0;"/><polygon fill="none" points="985.52,269.81,973.306,284.3296,984.4606,288.7541,985.52,269.81" style="stroke:#181818;stroke-width:1.0;"/></g><!--reverse link concepts to annotation-types--><g id="link_concepts_annotation-types"><path codeLine="39" d="M534.4782,494.0739 C496.6282,521.1939 456.64,549.85 418.82,576.96 " fill="none" id="concepts-backto-annotation-types" style="stroke:#181818;stroke-width:1.0;"/><polygon fill="none" points="549.11,483.59,530.9836,489.1966,537.9728,498.9511,549.11,483.59" style="stroke:#181818;stroke-width:1.0;"/></g><!--link besluiten to concepts--><g id="link_besluiten_concepts"><path codeLine="42" d="M598.25,277.52 C594.92,295.65 591.17,319.02 589.5,340 C587.37,366.78 588.0711,391.3326 589.5111,413.5026 " fill="none" id="besluiten-to-concepts" style="stroke:#181818;stroke-width:1.0;"/><polygon fill="#181818" points="589.9,419.49,593.3082,410.2497,589.5759,414.5005,585.3251,410.7682,589.9,419.49" style="stroke:#181818;stroke-width:1.0;"/><polygon fill="#000000" points="594.1793,353.5561,597.6923,344.7181,591.8265,344.3412,594.1793,353.5561" style="stroke:#000000;stroke-width:1.0;"/><text fill="#000000" font-family="sans-serif" font-size="13" lengthAdjust="spacing" textLength="26" x="603.5" y="353.0669">kind</text><text fill="#000000" font-family="sans-serif" font-size="13" lengthAdjust="spacing" textLength="8" x="580.5387" y="408.391">1</text></g><!--SRC=[ZLJ1RiCW3BtdAr2EapZiEaszJvfssHSGS2kl2I1mAaNQnuyIKf86efqYxEVdPp-81s9Q3E2jaF0DLZX1nZ5jD3Io5zwpLcXjI10QpSy0gXFowjkc76PlR3dK4Q45waijp_c9jQyjgvRdE3knDKl8llzoNbEy6sSxHUJkZ9fsGUb04AXTV324jtXyIfL6eCd2a_mOsy-Ggo-WAIi8jjIn7VX-H08TMtHcf0huvM2po-5Ukcnhrj2inDolIpuNI9ybBrH2gn5LiDwRxWVaJBiFXc92wg6MLE2bGvlsNeIW2kBmZE1g24zJlKFKNgNF_YZbm7lkm8Plw9YdJwdPWoCEQRG4cwQUhEdDPLhjx95kjiYudsMl5HdDaS1Xr2ZHYXvfuidHEjewSyFG_X3aoG7GFyYC9z5pQTGnhXizr-FGHHDhi7pzYauwE8E3e7osuklZy_6Fg6qjRVKEBVm1vsVS55zskhNPgDtVA5Kdslncc-txJKIhMF6-N56hCDOV]--></g></svg>