<?xml version="1.0" encoding="us-ascii" standalone="no"?><svg xmlns="http://www.w3.org/2000/svg" xmlns:xlink="http://www.w3.org/1999/xlink" contentStyleType="text/css" height="349px" preserveAspectRatio="none" style="width:540px;height:349px;background:#FFFFFF;" version="1.1" viewBox="0 0 540 349" width="540px" zoomAndPan="magnify"><defs/><g><!--class aanduidingsobjects--><g id="elem_aanduidingsobjects"><rect codeLine="2" fill="#F1F1F1" height="129.4844" id="aanduidingsobjects" rx="2.5" ry="2.5" style="stroke:#181818;stroke-width:0.5;" width="167" x="81" y="7"/><ellipse cx="96" cy="23" fill="#ADD1B2" rx="11" ry="11" style="stroke:#181818;stroke-width:1.0;"/><path d="M98.9688,28.6406 Q98.3906,28.9375 97.75,29.0781 Q97.1094,29.2344 96.4063,29.2344 Q93.9063,29.2344 92.5781,27.5938 Q91.2656,25.9375 91.2656,22.8125 Q91.2656,19.6875 92.5781,18.0313 Q93.9063,16.375 96.4063,16.375 Q97.1094,16.375 97.75,16.5313 Q98.4063,16.6875 98.9688,16.9844 L98.9688,19.7031 Q98.3438,19.125 97.75,18.8594 Q97.1563,18.5781 96.5313,18.5781 Q95.1875,18.5781 94.5,19.6563 Q93.8125,20.7188 93.8125,22.8125 Q93.8125,24.9063 94.5,25.9844 Q95.1875,27.0469 96.5313,27.0469 Q97.1563,27.0469 97.75,26.7813 Q98.3438,26.5 98.9688,25.9219 L98.9688,28.6406 Z " fill="#000000"/><text fill="#000000" font-family="sans-serif" font-size="14" lengthAdjust="spacing" textLength="135" x="110" y="27.8467">aanduidingsobjects</text><line style="stroke:#181818;stroke-width:0.5;" x1="82" x2="247" y1="39" y2="39"/><text fill="#000000" font-family="sans-serif" font-size="14" lengthAdjust="spacing" textLength="25" x="87" y="55.9951">title</text><text fill="#000000" font-family="sans-serif" font-size="14" lengthAdjust="spacing" textLength="77" x="87" y="72.292">description</text><text fill="#000000" font-family="sans-serif" font-size="14" lengthAdjust="spacing" textLength="59" x="87" y="88.5889">identifier</text><text fill="#000000" font-family="sans-serif" font-size="14" lengthAdjust="spacing" textLength="32" x="87" y="104.8857">style</text><text fill="#000000" font-family="sans-serif" font-size="14" lengthAdjust="spacing" textLength="56" x="87" y="121.1826">creation</text><line style="stroke:#181818;stroke-width:0.5;" x1="82" x2="247" y1="128.4844" y2="128.4844"/></g><!--class address-representations--><g id="elem_address-representations"><rect codeLine="10" fill="#F1F1F1" height="129.4844" id="address-representations" rx="2.5" ry="2.5" style="stroke:#181818;stroke-width:0.5;" width="203" x="186" y="213"/><ellipse cx="201" cy="229" fill="#ADD1B2" rx="11" ry="11" style="stroke:#181818;stroke-width:1.0;"/><path d="M203.9688,234.6406 Q203.3906,234.9375 202.75,235.0781 Q202.1094,235.2344 201.4063,235.2344 Q198.9063,235.2344 197.5781,233.5938 Q196.2656,231.9375 196.2656,228.8125 Q196.2656,225.6875 197.5781,224.0313 Q198.9063,222.375 201.4063,222.375 Q202.1094,222.375 202.75,222.5313 Q203.4063,222.6875 203.9688,222.9844 L203.9688,225.7031 Q203.3438,225.125 202.75,224.8594 Q202.1563,224.5781 201.5313,224.5781 Q200.1875,224.5781 199.5,225.6563 Q198.8125,226.7188 198.8125,228.8125 Q198.8125,230.9063 199.5,231.9844 Q200.1875,233.0469 201.5313,233.0469 Q202.1563,233.0469 202.75,232.7813 Q203.3438,232.5 203.9688,231.9219 L203.9688,234.6406 Z " fill="#000000"/><text fill="#000000" font-family="sans-serif" font-size="14" lengthAdjust="spacing" textLength="171" x="215" y="233.8467">address-representations</text><line style="stroke:#181818;stroke-width:0.5;" x1="187" x2="388" y1="245" y2="245"/><text fill="#000000" font-family="sans-serif" font-size="14" lengthAdjust="spacing" textLength="124" x="192" y="261.9951">municipality-name</text><text fill="#000000" font-family="sans-serif" font-size="14" lengthAdjust="spacing" textLength="59" x="192" y="278.292">province</text><text fill="#000000" font-family="sans-serif" font-size="14" lengthAdjust="spacing" textLength="85" x="192" y="294.5889">street-name</text><text fill="#000000" font-family="sans-serif" font-size="14" lengthAdjust="spacing" textLength="82" x="192" y="310.8857">postal-code</text><text fill="#000000" font-family="sans-serif" font-size="14" lengthAdjust="spacing" textLength="85" x="192" y="327.1826">bus-number</text><line style="stroke:#181818;stroke-width:0.5;" x1="187" x2="388" y1="334.4844" y2="334.4844"/></g><!--class concepts--><g id="elem_concepts"><rect codeLine="21" fill="#F1F1F1" height="64.2969" id="concepts" rx="2.5" ry="2.5" style="stroke:#181818;stroke-width:0.5;" width="97" x="7" y="245.5"/><ellipse cx="22" cy="261.5" fill="#ADD1B2" rx="11" ry="11" style="stroke:#181818;stroke-width:1.0;"/><path d="M24.9688,267.1406 Q24.3906,267.4375 23.75,267.5781 Q23.1094,267.7344 22.4063,267.7344 Q19.9063,267.7344 18.5781,266.0938 Q17.2656,264.4375 17.2656,261.3125 Q17.2656,258.1875 18.5781,256.5313 Q19.9063,254.875 22.4063,254.875 Q23.1094,254.875 23.75,255.0313 Q24.4063,255.1875 24.9688,255.4844 L24.9688,258.2031 Q24.3438,257.625 23.75,257.3594 Q23.1563,257.0781 22.5313,257.0781 Q21.1875,257.0781 20.5,258.1563 Q19.8125,259.2188 19.8125,261.3125 Q19.8125,263.4063 20.5,264.4844 Q21.1875,265.5469 22.5313,265.5469 Q23.1563,265.5469 23.75,265.2813 Q24.3438,265 24.9688,264.4219 L24.9688,267.1406 Z " fill="#000000"/><text fill="#000000" font-family="sans-serif" font-size="14" lengthAdjust="spacing" textLength="65" x="36" y="266.3467">concepts</text><line style="stroke:#181818;stroke-width:0.5;" x1="8" x2="103" y1="277.5" y2="277.5"/><text fill="#000000" font-family="sans-serif" font-size="14" lengthAdjust="spacing" textLength="25" x="13" y="294.4951">title</text><line style="stroke:#181818;stroke-width:0.5;" x1="8" x2="103" y1="301.7969" y2="301.7969"/></g><!--class NIL--><g id="elem_NIL"><rect codeLine="18" fill="#F1F1F1" height="48" id="NIL" rx="2.5" ry="2.5" style="stroke:#181818;stroke-width:0.5;" width="52" x="350.5" y="47.5"/><ellipse cx="365.5" cy="63.5" fill="#ADD1B2" rx="11" ry="11" style="stroke:#181818;stroke-width:1.0;"/><path d="M368.4688,69.1406 Q367.8906,69.4375 367.25,69.5781 Q366.6094,69.7344 365.9063,69.7344 Q363.4063,69.7344 362.0781,68.0938 Q360.7656,66.4375 360.7656,63.3125 Q360.7656,60.1875 362.0781,58.5313 Q363.4063,56.875 365.9063,56.875 Q366.6094,56.875 367.25,57.0313 Q367.9063,57.1875 368.4688,57.4844 L368.4688,60.2031 Q367.8438,59.625 367.25,59.3594 Q366.6563,59.0781 366.0313,59.0781 Q364.6875,59.0781 364,60.1563 Q363.3125,61.2188 363.3125,63.3125 Q363.3125,65.4063 364,66.4844 Q364.6875,67.5469 366.0313,67.5469 Q366.6563,67.5469 367.25,67.2813 Q367.8438,67 368.4688,66.4219 L368.4688,69.1406 Z " fill="#000000"/><text fill="#000000" font-family="sans-serif" font-size="14" lengthAdjust="spacing" textLength="20" x="379.5" y="68.3467">NIL</text><line style="stroke:#181818;stroke-width:0.5;" x1="351.5" x2="401.5" y1="79.5" y2="79.5"/><line style="stroke:#181818;stroke-width:0.5;" x1="351.5" x2="401.5" y1="87.5" y2="87.5"/></g><!--class besluiten--><g id="elem_besluiten"><rect codeLine="19" fill="#F1F1F1" height="64.2969" id="besluiten" rx="2.5" ry="2.5" style="stroke:#181818;stroke-width:0.5;" width="96" x="437.5" y="39.5"/><ellipse cx="452.5" cy="55.5" fill="#ADD1B2" rx="11" ry="11" style="stroke:#181818;stroke-width:1.0;"/><path d="M455.4688,61.1406 Q454.8906,61.4375 454.25,61.5781 Q453.6094,61.7344 452.9063,61.7344 Q450.4063,61.7344 449.0781,60.0938 Q447.7656,58.4375 447.7656,55.3125 Q447.7656,52.1875 449.0781,50.5313 Q450.4063,48.875 452.9063,48.875 Q453.6094,48.875 454.25,49.0313 Q454.9063,49.1875 455.4688,49.4844 L455.4688,52.2031 Q454.8438,51.625 454.25,51.3594 Q453.6563,51.0781 453.0313,51.0781 Q451.6875,51.0781 451,52.1563 Q450.3125,53.2188 450.3125,55.3125 Q450.3125,57.4063 451,58.4844 Q451.6875,59.5469 453.0313,59.5469 Q453.6563,59.5469 454.25,59.2813 Q454.8438,59 455.4688,58.4219 L455.4688,61.1406 Z " fill="#000000"/><text fill="#000000" font-family="sans-serif" font-size="14" lengthAdjust="spacing" textLength="64" x="466.5" y="60.3467">besluiten</text><line style="stroke:#181818;stroke-width:0.5;" x1="438.5" x2="532.5" y1="71.5" y2="71.5"/><text fill="#000000" font-family="sans-serif" font-size="14" lengthAdjust="spacing" textLength="25" x="443.5" y="88.4951">title</text><line style="stroke:#181818;stroke-width:0.5;" x1="438.5" x2="532.5" y1="95.7969" y2="95.7969"/></g><!--link aanduidingsobjects to address-representations--><g id="link_aanduidingsobjects_address-representations"><path codeLine="8" d="M227.42,136.08 C235.14,145.66 242.43,155.77 248.5,166 C257.07,180.43 262.1393,191.3905 267.8193,207.2705 " fill="none" id="aanduidingsobjects-to-address-representations" style="stroke:#181818;stroke-width:1.0;"/><polygon fill="#181818" points="269.84,212.92,270.5752,203.0986,268.1561,208.2121,263.0426,205.7929,269.84,212.92" style="stroke:#181818;stroke-width:1.0;"/><polygon fill="#000000" points="263.9677,178.915,262.0596,169.5978,256.9475,172.4988,263.9677,178.915" style="stroke:#000000;stroke-width:1.0;"/><text fill="#000000" font-family="sans-serif" font-size="13" lengthAdjust="spacing" textLength="51" x="270.5" y="179.0669">address</text><text fill="#000000" font-family="sans-serif" font-size="13" lengthAdjust="spacing" textLength="8" x="259.4709" y="202.0839">1</text></g><!--link address-representations to aanduidingsobjects--><g id="link_address-representations_aanduidingsobjects"><path codeLine="16" d="M185.82,219.26 C174.45,208.68 164.47,196.61 157.5,183 C150.22,168.8 148.0772,158.1813 148.9372,142.2213 " fill="none" id="address-representations-to-aanduidingsobjects" style="stroke:#181818;stroke-width:1.0;"/><polygon fill="#181818" points="149.26,136.23,144.7815,145.0017,148.991,141.2228,152.7699,145.4322,149.26,136.23" style="stroke:#181818;stroke-width:1.0;"/><polygon fill="#000000" points="160.3409,170.0566,161.596,179.484,166.8975,176.9458,160.3409,170.0566" style="stroke:#000000;stroke-width:1.0;"/><text fill="#000000" font-family="sans-serif" font-size="13" lengthAdjust="spacing" textLength="68" x="171.5" y="179.0669">references</text><text fill="#000000" font-family="sans-serif" font-size="13" lengthAdjust="spacing" textLength="7" x="140.0932" y="156.6282">*</text></g><!--link aanduidingsobjects to concepts--><g id="link_aanduidingsobjects_concepts"><path codeLine="9" d="M80.77,127.42 C69.32,138.75 59.21,151.66 52.5,166 C40.87,190.86 42.0712,216.5215 46.3612,239.5515 " fill="none" id="aanduidingsobjects-to-concepts" style="stroke:#181818;stroke-width:1.0;"/><polygon fill="#181818" points="47.46,245.45,49.7442,235.8697,46.5444,240.5346,41.8795,237.3347,47.46,245.45" style="stroke:#181818;stroke-width:1.0;"/><polygon fill="#000000" points="56.0332,179.3464,61.4963,171.5615,55.877,169.8371,56.0332,179.3464" style="stroke:#000000;stroke-width:1.0;"/><text fill="#000000" font-family="sans-serif" font-size="13" lengthAdjust="spacing" textLength="54" x="66.5" y="179.0669">typology</text><text fill="#000000" font-family="sans-serif" font-size="13" lengthAdjust="spacing" textLength="8" x="36.9768" y="234.3428">1</text></g><!--reverse link NIL to address-representations--><g id="link_NIL_address-representations"><path codeLine="17" d="M372.8872,113.6833 C370.4972,136.6533 366.87,154.47 354.5,183 C350.09,193.17 344.44,203.32 338.3,212.99 " fill="none" id="NIL-backto-address-representations" style="stroke:#181818;stroke-width:1.0;"/><polygon fill="none" points="374.75,95.78,366.9194,113.0624,378.855,114.3043,374.75,95.78" style="stroke:#181818;stroke-width:1.0;"/></g><!--SRC=[ZPBFIWGn3CRlynIbHw47ho9x5yIBJz1fiqkaavOa5GPyU3lZx8fWgwU6vjVy-RuAg26_W1GVu1MAPw-P3MM2AIGlOgpt52j6f8la-Gs2Yfr-kpGFHb4Jz98H930MnKmz12EGuXc1UuJeskyG67o_l7CdO-zjMoX61X77KDhPEkwFzWf7ofpC7pL2fW3bs7ejEUNBkhswQjPfCOsQBvKmOF49TNMRAKEwS7x7DiGG4cK0_KUnBEgJ2pcEkRcAexhCkq4zR1VfpfgEImndO6YJVydyylHipUE7SmFL3bKtz1hF8AcY0ZLDl-FR7poecqtJJySsvXC0]--></g></svg>