<?xml version="1.0" encoding="us-ascii" standalone="no"?><svg xmlns="http://www.w3.org/2000/svg" xmlns:xlink="http://www.w3.org/1999/xlink" contentStyleType="text/css" height="789px" preserveAspectRatio="none" style="width:653px;height:789px;background:#FFFFFF;" version="1.1" viewBox="0 0 653 789" width="653px" zoomAndPan="magnify"><defs/><g><!--class agents--><g id="elem_agents"><rect codeLine="2" fill="#F1F1F1" height="64.2969" id="agents" rx="2.5" ry="2.5" style="stroke:#181818;stroke-width:0.5;" width="80" x="50.5" y="7"/><ellipse cx="65.5" cy="23" fill="#ADD1B2" rx="11" ry="11" style="stroke:#181818;stroke-width:1.0;"/><path d="M68.4688,28.6406 Q67.8906,28.9375 67.25,29.0781 Q66.6094,29.2344 65.9063,29.2344 Q63.4063,29.2344 62.0781,27.5938 Q60.7656,25.9375 60.7656,22.8125 Q60.7656,19.6875 62.0781,18.0313 Q63.4063,16.375 65.9063,16.375 Q66.6094,16.375 67.25,16.5313 Q67.9063,16.6875 68.4688,16.9844 L68.4688,19.7031 Q67.8438,19.125 67.25,18.8594 Q66.6563,18.5781 66.0313,18.5781 Q64.6875,18.5781 64,19.6563 Q63.3125,20.7188 63.3125,22.8125 Q63.3125,24.9063 64,25.9844 Q64.6875,27.0469 66.0313,27.0469 Q66.6563,27.0469 67.25,26.7813 Q67.8438,26.5 68.4688,25.9219 L68.4688,28.6406 Z " fill="#000000"/><text fill="#000000" font-family="sans-serif" font-size="14" lengthAdjust="spacing" textLength="48" x="79.5" y="27.8467">agents</text><line style="stroke:#181818;stroke-width:0.5;" x1="51.5" x2="129.5" y1="39" y2="39"/><text fill="#000000" font-family="sans-serif" font-size="14" lengthAdjust="spacing" textLength="39" x="56.5" y="55.9951">name</text><line style="stroke:#181818;stroke-width:0.5;" x1="51.5" x2="129.5" y1="63.2969" y2="63.2969"/></g><!--class annotations--><g id="elem_annotations"><rect codeLine="5" fill="#F1F1F1" height="96.8906" id="annotations" rx="2.5" ry="2.5" style="stroke:#181818;stroke-width:0.5;" width="114" x="33.5" y="148"/><ellipse cx="48.5" cy="164" fill="#ADD1B2" rx="11" ry="11" style="stroke:#181818;stroke-width:1.0;"/><path d="M51.4688,169.6406 Q50.8906,169.9375 50.25,170.0781 Q49.6094,170.2344 48.9063,170.2344 Q46.4063,170.2344 45.0781,168.5938 Q43.7656,166.9375 43.7656,163.8125 Q43.7656,160.6875 45.0781,159.0313 Q46.4063,157.375 48.9063,157.375 Q49.6094,157.375 50.25,157.5313 Q50.9063,157.6875 51.4688,157.9844 L51.4688,160.7031 Q50.8438,160.125 50.25,159.8594 Q49.6563,159.5781 49.0313,159.5781 Q47.6875,159.5781 47,160.6563 Q46.3125,161.7188 46.3125,163.8125 Q46.3125,165.9063 47,166.9844 Q47.6875,168.0469 49.0313,168.0469 Q49.6563,168.0469 50.25,167.7813 Q50.8438,167.5 51.4688,166.9219 L51.4688,169.6406 Z " fill="#000000"/><text fill="#000000" font-family="sans-serif" font-size="14" lengthAdjust="spacing" textLength="82" x="62.5" y="168.8467">annotations</text><line style="stroke:#181818;stroke-width:0.5;" x1="34.5" x2="146.5" y1="180" y2="180"/><text fill="#000000" font-family="sans-serif" font-size="14" lengthAdjust="spacing" textLength="34" x="39.5" y="196.9951">body</text><text fill="#000000" font-family="sans-serif" font-size="14" lengthAdjust="spacing" textLength="53" x="39.5" y="213.292">created</text><text fill="#000000" font-family="sans-serif" font-size="14" lengthAdjust="spacing" textLength="71" x="39.5" y="229.5889">motivation</text><line style="stroke:#181818;stroke-width:0.5;" x1="34.5" x2="146.5" y1="236.8906" y2="236.8906"/></g><!--class annotation-types--><g id="elem_annotation-types"><rect codeLine="31" fill="#F1F1F1" height="64.2969" id="annotation-types" rx="2.5" ry="2.5" style="stroke:#181818;stroke-width:0.5;" width="149" x="7" y="718"/><ellipse cx="22" cy="734" fill="#ADD1B2" rx="11" ry="11" style="stroke:#181818;stroke-width:1.0;"/><path d="M24.9688,739.6406 Q24.3906,739.9375 23.75,740.0781 Q23.1094,740.2344 22.4063,740.2344 Q19.9063,740.2344 18.5781,738.5938 Q17.2656,736.9375 17.2656,733.8125 Q17.2656,730.6875 18.5781,729.0313 Q19.9063,727.375 22.4063,727.375 Q23.1094,727.375 23.75,727.5313 Q24.4063,727.6875 24.9688,727.9844 L24.9688,730.7031 Q24.3438,730.125 23.75,729.8594 Q23.1563,729.5781 22.5313,729.5781 Q21.1875,729.5781 20.5,730.6563 Q19.8125,731.7188 19.8125,733.8125 Q19.8125,735.9063 20.5,736.9844 Q21.1875,738.0469 22.5313,738.0469 Q23.1563,738.0469 23.75,737.7813 Q24.3438,737.5 24.9688,736.9219 L24.9688,739.6406 Z " fill="#000000"/><text fill="#000000" font-family="sans-serif" font-size="14" lengthAdjust="spacing" textLength="117" x="36" y="738.8467">annotation-types</text><line style="stroke:#181818;stroke-width:0.5;" x1="8" x2="155" y1="750" y2="750"/><text fill="#000000" font-family="sans-serif" font-size="14" lengthAdjust="spacing" textLength="25" x="13" y="766.9951">title</text><line style="stroke:#181818;stroke-width:0.5;" x1="8" x2="155" y1="774.2969" y2="774.2969"/></g><!--class besluiten--><g id="elem_besluiten"><rect codeLine="34" fill="#F1F1F1" height="64.2969" id="besluiten" rx="2.5" ry="2.5" style="stroke:#181818;stroke-width:0.5;" width="96" x="142.5" y="354.5"/><ellipse cx="157.5" cy="370.5" fill="#ADD1B2" rx="11" ry="11" style="stroke:#181818;stroke-width:1.0;"/><path d="M160.4688,376.1406 Q159.8906,376.4375 159.25,376.5781 Q158.6094,376.7344 157.9063,376.7344 Q155.4063,376.7344 154.0781,375.0938 Q152.7656,373.4375 152.7656,370.3125 Q152.7656,367.1875 154.0781,365.5313 Q155.4063,363.875 157.9063,363.875 Q158.6094,363.875 159.25,364.0313 Q159.9063,364.1875 160.4688,364.4844 L160.4688,367.2031 Q159.8438,366.625 159.25,366.3594 Q158.6563,366.0781 158.0313,366.0781 Q156.6875,366.0781 156,367.1563 Q155.3125,368.2188 155.3125,370.3125 Q155.3125,372.4063 156,373.4844 Q156.6875,374.5469 158.0313,374.5469 Q158.6563,374.5469 159.25,374.2813 Q159.8438,374 160.4688,373.4219 L160.4688,376.1406 Z " fill="#000000"/><text fill="#000000" font-family="sans-serif" font-size="14" lengthAdjust="spacing" textLength="64" x="171.5" y="375.3467">besluiten</text><line style="stroke:#181818;stroke-width:0.5;" x1="143.5" x2="237.5" y1="386.5" y2="386.5"/><text fill="#000000" font-family="sans-serif" font-size="14" lengthAdjust="spacing" textLength="25" x="148.5" y="403.4951">title</text><line style="stroke:#181818;stroke-width:0.5;" x1="143.5" x2="237.5" y1="410.7969" y2="410.7969"/></g><!--class aanduidingsobjects--><g id="elem_aanduidingsobjects"><rect codeLine="12" fill="#F1F1F1" height="129.4844" id="aanduidingsobjects" rx="2.5" ry="2.5" style="stroke:#181818;stroke-width:0.5;" width="167" x="325" y="322"/><ellipse cx="340" cy="338" fill="#ADD1B2" rx="11" ry="11" style="stroke:#181818;stroke-width:1.0;"/><path d="M342.9688,343.6406 Q342.3906,343.9375 341.75,344.0781 Q341.1094,344.2344 340.4063,344.2344 Q337.9063,344.2344 336.5781,342.5938 Q335.2656,340.9375 335.2656,337.8125 Q335.2656,334.6875 336.5781,333.0313 Q337.9063,331.375 340.4063,331.375 Q341.1094,331.375 341.75,331.5313 Q342.4063,331.6875 342.9688,331.9844 L342.9688,334.7031 Q342.3438,334.125 341.75,333.8594 Q341.1563,333.5781 340.5313,333.5781 Q339.1875,333.5781 338.5,334.6563 Q337.8125,335.7188 337.8125,337.8125 Q337.8125,339.9063 338.5,340.9844 Q339.1875,342.0469 340.5313,342.0469 Q341.1563,342.0469 341.75,341.7813 Q342.3438,341.5 342.9688,340.9219 L342.9688,343.6406 Z " fill="#000000"/><text fill="#000000" font-family="sans-serif" font-size="14" lengthAdjust="spacing" textLength="135" x="354" y="342.8467">aanduidingsobjects</text><line style="stroke:#181818;stroke-width:0.5;" x1="326" x2="491" y1="354" y2="354"/><text fill="#000000" font-family="sans-serif" font-size="14" lengthAdjust="spacing" textLength="25" x="331" y="370.9951">title</text><text fill="#000000" font-family="sans-serif" font-size="14" lengthAdjust="spacing" textLength="77" x="331" y="387.292">description</text><text fill="#000000" font-family="sans-serif" font-size="14" lengthAdjust="spacing" textLength="59" x="331" y="403.5889">identifier</text><text fill="#000000" font-family="sans-serif" font-size="14" lengthAdjust="spacing" textLength="32" x="331" y="419.8857">style</text><text fill="#000000" font-family="sans-serif" font-size="14" lengthAdjust="spacing" textLength="56" x="331" y="436.1826">creation</text><line style="stroke:#181818;stroke-width:0.5;" x1="326" x2="491" y1="443.4844" y2="443.4844"/></g><!--class address-representations--><g id="elem_address-representations"><rect codeLine="22" fill="#F1F1F1" height="129.4844" id="address-representations" rx="2.5" ry="2.5" style="stroke:#181818;stroke-width:0.5;" width="203" x="413" y="528"/><ellipse cx="428" cy="544" fill="#ADD1B2" rx="11" ry="11" style="stroke:#181818;stroke-width:1.0;"/><path d="M430.9688,549.6406 Q430.3906,549.9375 429.75,550.0781 Q429.1094,550.2344 428.4063,550.2344 Q425.9063,550.2344 424.5781,548.5938 Q423.2656,546.9375 423.2656,543.8125 Q423.2656,540.6875 424.5781,539.0313 Q425.9063,537.375 428.4063,537.375 Q429.1094,537.375 429.75,537.5313 Q430.4063,537.6875 430.9688,537.9844 L430.9688,540.7031 Q430.3438,540.125 429.75,539.8594 Q429.1563,539.5781 428.5313,539.5781 Q427.1875,539.5781 426.5,540.6563 Q425.8125,541.7188 425.8125,543.8125 Q425.8125,545.9063 426.5,546.9844 Q427.1875,548.0469 428.5313,548.0469 Q429.1563,548.0469 429.75,547.7813 Q430.3438,547.5 430.9688,546.9219 L430.9688,549.6406 Z " fill="#000000"/><text fill="#000000" font-family="sans-serif" font-size="14" lengthAdjust="spacing" textLength="171" x="442" y="548.8467">address-representations</text><line style="stroke:#181818;stroke-width:0.5;" x1="414" x2="615" y1="560" y2="560"/><text fill="#000000" font-family="sans-serif" font-size="14" lengthAdjust="spacing" textLength="124" x="419" y="576.9951">municipality-name</text><text fill="#000000" font-family="sans-serif" font-size="14" lengthAdjust="spacing" textLength="59" x="419" y="593.292">province</text><text fill="#000000" font-family="sans-serif" font-size="14" lengthAdjust="spacing" textLength="85" x="419" y="609.5889">street-name</text><text fill="#000000" font-family="sans-serif" font-size="14" lengthAdjust="spacing" textLength="82" x="419" y="625.8857">postal-code</text><text fill="#000000" font-family="sans-serif" font-size="14" lengthAdjust="spacing" textLength="85" x="419" y="642.1826">bus-number</text><line style="stroke:#181818;stroke-width:0.5;" x1="414" x2="615" y1="649.4844" y2="649.4844"/></g><!--class concepts--><g id="elem_concepts"><rect codeLine="20" fill="#F1F1F1" height="64.2969" id="concepts" rx="2.5" ry="2.5" style="stroke:#181818;stroke-width:0.5;" width="97" x="170" y="560.5"/><ellipse cx="185" cy="576.5" fill="#ADD1B2" rx="11" ry="11" style="stroke:#181818;stroke-width:1.0;"/><path d="M187.9688,582.1406 Q187.3906,582.4375 186.75,582.5781 Q186.1094,582.7344 185.4063,582.7344 Q182.9063,582.7344 181.5781,581.0938 Q180.2656,579.4375 180.2656,576.3125 Q180.2656,573.1875 181.5781,571.5313 Q182.9063,569.875 185.4063,569.875 Q186.1094,569.875 186.75,570.0313 Q187.4063,570.1875 187.9688,570.4844 L187.9688,573.2031 Q187.3438,572.625 186.75,572.3594 Q186.1563,572.0781 185.5313,572.0781 Q184.1875,572.0781 183.5,573.1563 Q182.8125,574.2188 182.8125,576.3125 Q182.8125,578.4063 183.5,579.4844 Q184.1875,580.5469 185.5313,580.5469 Q186.1563,580.5469 186.75,580.2813 Q187.3438,580 187.9688,579.4219 L187.9688,582.1406 Z " fill="#000000"/><text fill="#000000" font-family="sans-serif" font-size="14" lengthAdjust="spacing" textLength="65" x="199" y="581.3467">concepts</text><line style="stroke:#181818;stroke-width:0.5;" x1="171" x2="266" y1="592.5" y2="592.5"/><text fill="#000000" font-family="sans-serif" font-size="14" lengthAdjust="spacing" textLength="25" x="176" y="609.4951">title</text><line style="stroke:#181818;stroke-width:0.5;" x1="171" x2="266" y1="616.7969" y2="616.7969"/></g><!--class NIL--><g id="elem_NIL"><rect codeLine="30" fill="#F1F1F1" height="48" id="NIL" rx="2.5" ry="2.5" style="stroke:#181818;stroke-width:0.5;" width="52" x="594.5" y="362.5"/><ellipse cx="609.5" cy="378.5" fill="#ADD1B2" rx="11" ry="11" style="stroke:#181818;stroke-width:1.0;"/><path d="M612.4688,384.1406 Q611.8906,384.4375 611.25,384.5781 Q610.6094,384.7344 609.9063,384.7344 Q607.4063,384.7344 606.0781,383.0938 Q604.7656,381.4375 604.7656,378.3125 Q604.7656,375.1875 606.0781,373.5313 Q607.4063,371.875 609.9063,371.875 Q610.6094,371.875 611.25,372.0313 Q611.9063,372.1875 612.4688,372.4844 L612.4688,375.2031 Q611.8438,374.625 611.25,374.3594 Q610.6563,374.0781 610.0313,374.0781 Q608.6875,374.0781 608,375.1563 Q607.3125,376.2188 607.3125,378.3125 Q607.3125,380.4063 608,381.4844 Q608.6875,382.5469 610.0313,382.5469 Q610.6563,382.5469 611.25,382.2813 Q611.8438,382 612.4688,381.4219 L612.4688,384.1406 Z " fill="#000000"/><text fill="#000000" font-family="sans-serif" font-size="14" lengthAdjust="spacing" textLength="20" x="623.5" y="383.3467">NIL</text><line style="stroke:#181818;stroke-width:0.5;" x1="595.5" x2="645.5" y1="394.5" y2="394.5"/><line style="stroke:#181818;stroke-width:0.5;" x1="595.5" x2="645.5" y1="402.5" y2="402.5"/></g><!--link agents to annotations--><g id="link_agents_annotations"><path codeLine="4" d="M52.6,71.13 C40.89,84.59 32.28,101.11 37.5,118 C40.68,128.28 42.5979,133.2986 48.3579,142.6686 " fill="none" id="agents-to-annotations" style="stroke:#181818;stroke-width:1.0;"/><polygon fill="#181818" points="51.5,147.78,50.1944,138.0181,48.8815,143.5205,43.3791,142.2076,51.5,147.78" style="stroke:#181818;stroke-width:1.0;"/><polygon fill="#000000" points="42.204,114.5576,45.6732,105.7024,39.8057,105.3544,42.204,114.5576" style="stroke:#000000;stroke-width:1.0;"/><text fill="#000000" font-family="sans-serif" font-size="13" lengthAdjust="spacing" textLength="46" x="51.5" y="114.0669">creator</text><text fill="#000000" font-family="sans-serif" font-size="13" lengthAdjust="spacing" textLength="7" x="38.5234" y="136.958">*</text></g><!--link annotations to agents--><g id="link_annotations_agents"><path codeLine="10" d="M100.71,147.97 C102.82,132.97 103.99,116.31 102.5,101 C101.55,91.22 100.9462,86.5716 99.0262,77.0516 " fill="none" id="annotations-to-agents" style="stroke:#181818;stroke-width:1.0;"/><polygon fill="#181818" points="97.84,71.17,95.6982,80.7832,98.8285,76.0713,103.5404,79.2016,97.84,71.17" style="stroke:#181818;stroke-width:1.0;"/><polygon fill="#000000" points="108.3813,104.5678,105.6579,113.6801,111.5341,113.5406,108.3813,104.5678" style="stroke:#000000;stroke-width:1.0;"/><text fill="#000000" font-family="sans-serif" font-size="13" lengthAdjust="spacing" textLength="46" x="117.5" y="114.0669">creator</text><text fill="#000000" font-family="sans-serif" font-size="13" lengthAdjust="spacing" textLength="8" x="90.5289" y="91.4019">1</text></g><!--link annotations to annotation-types--><g id="link_annotations_annotation-types"><path codeLine="9" d="M87.56,245.1 C84.19,304.34 79.14,408.6 79.5,498 C79.82,577.09 80.6294,664.2003 81.1094,711.7003 " fill="none" id="annotations-to-annotation-types" style="stroke:#181818;stroke-width:1.0;"/><polygon fill="#181818" points="81.17,717.7,85.0789,708.66,81.1195,712.7003,77.0793,708.7409,81.17,717.7" style="stroke:#181818;stroke-width:1.0;"/><polygon fill="#000000" points="84.4309,494.5659,87.4946,485.5623,81.6173,485.4811,84.4309,494.5659" style="stroke:#000000;stroke-width:1.0;"/><text fill="#000000" font-family="sans-serif" font-size="13" lengthAdjust="spacing" textLength="102" x="93.5" y="494.0669">annotation-type</text><text fill="#000000" font-family="sans-serif" font-size="13" lengthAdjust="spacing" textLength="8" x="72.3175" y="706.9151">1</text></g><!--link annotations to besluiten--><g id="link_annotations_besluiten"><path codeLine="11" d="M115.99,245.43 C134.22,279.7 155.4025,319.5227 171.1725,349.1727 " fill="none" id="annotations-to-besluiten" style="stroke:#181818;stroke-width:1.0;"/><polygon fill="#181818" points="173.99,354.47,173.2953,344.6457,171.6421,350.0556,166.2322,348.4023,173.99,354.47" style="stroke:#181818;stroke-width:1.0;"/><polygon fill="#000000" points="147.8481,287.9808,146.1951,278.615,141.0057,281.3753,147.8481,287.9808" style="stroke:#000000;stroke-width:1.0;"/><text fill="#000000" font-family="sans-serif" font-size="13" lengthAdjust="spacing" textLength="37" x="154.5" y="288.0669">about</text><text fill="#000000" font-family="sans-serif" font-size="13" lengthAdjust="spacing" textLength="8" x="161.7598" y="343.3669">1</text></g><!--link aanduidingsobjects to address-representations--><g id="link_aanduidingsobjects_address-representations"><path codeLine="18" d="M397.12,451.15 C396.85,467.03 398.89,483.61 405.5,498 C410.45,508.76 413.384,514.2128 421.284,523.3428 " fill="none" id="aanduidingsobjects-to-address-representations" style="stroke:#181818;stroke-width:1.0;"/><polygon fill="#181818" points="425.21,527.88,422.3459,518.4568,421.9383,524.099,416.2962,523.6915,425.21,527.88" style="stroke:#181818;stroke-width:1.0;"/><polygon fill="#000000" points="412.087,494.3079,412.003,484.7977,406.4291,486.6633,412.087,494.3079" style="stroke:#000000;stroke-width:1.0;"/><text fill="#000000" font-family="sans-serif" font-size="13" lengthAdjust="spacing" textLength="51" x="419.5" y="494.0669">address</text><text fill="#000000" font-family="sans-serif" font-size="13" lengthAdjust="spacing" textLength="8" x="407.0064" y="517.0395">1</text></g><!--link address-representations to aanduidingsobjects--><g id="link_address-representations_aanduidingsobjects"><path codeLine="28" d="M495.52,527.96 C489.9,512.24 483.16,495.7 475.5,481 C470.28,470.99 467.4287,465.8486 460.9687,456.1186 " fill="none" id="address-representations-to-aanduidingsobjects" style="stroke:#181818;stroke-width:1.0;"/><polygon fill="#181818" points="457.65,451.12,459.2957,460.8304,460.4156,455.2855,465.9605,456.4054,457.65,451.12" style="stroke:#181818;stroke-width:1.0;"/><polygon fill="#000000" points="485.3329,485.0604,486.6047,494.4856,491.9018,491.938,485.3329,485.0604" style="stroke:#000000;stroke-width:1.0;"/><text fill="#000000" font-family="sans-serif" font-size="13" lengthAdjust="spacing" textLength="68" x="496.5" y="494.0669">references</text><text fill="#000000" font-family="sans-serif" font-size="13" lengthAdjust="spacing" textLength="7" x="455.9283" y="471.5054">*</text></g><!--link aanduidingsobjects to concepts--><g id="link_aanduidingsobjects_concepts"><path codeLine="19" d="M349.16,451.21 C315.3,487.57 278.4596,527.1296 251.5396,556.0296 " fill="none" id="aanduidingsobjects-to-concepts" style="stroke:#181818;stroke-width:1.0;"/><polygon fill="#181818" points="247.45,560.42,256.5113,556.5608,250.858,556.7614,250.6575,551.1081,247.45,560.42" style="stroke:#181818;stroke-width:1.0;"/><polygon fill="#000000" points="321.0924,493.2254,329.4075,488.6092,325.1062,484.6033,321.0924,493.2254" style="stroke:#000000;stroke-width:1.0;"/><text fill="#000000" font-family="sans-serif" font-size="13" lengthAdjust="spacing" textLength="54" x="333.5" y="494.0669">typology</text><text fill="#000000" font-family="sans-serif" font-size="13" lengthAdjust="spacing" textLength="8" x="244.5959" y="549.3066">1</text></g><!--reverse link NIL to address-representations--><g id="link_NIL_address-representations"><path codeLine="29" d="M605.3803,427.6548 C596.6603,450.3748 588.78,468.82 573.5,498 C568.33,507.86 562.48,518.05 556.52,527.92 " fill="none" id="NIL-backto-address-representations" style="stroke:#181818;stroke-width:1.0;"/><polygon fill="none" points="611.83,410.85,599.7787,425.5049,610.9819,429.8047,611.83,410.85" style="stroke:#181818;stroke-width:1.0;"/></g><!--reverse link concepts to annotation-types--><g id="link_concepts_annotation-types"><path codeLine="33" d="M179.209,638.0943 C155.309,665.2143 132.73,690.85 108.85,717.96 " fill="none" id="concepts-backto-annotation-types" style="stroke:#181818;stroke-width:1.0;"/><polygon fill="none" points="191.11,624.59,174.7076,634.1274,183.7105,642.0613,191.11,624.59" style="stroke:#181818;stroke-width:1.0;"/></g><!--link besluiten to concepts--><g id="link_besluiten_concepts"><path codeLine="36" d="M194.81,418.93 C200.09,457.38 208.1539,516.1158 213.4139,554.4258 " fill="none" id="besluiten-to-concepts" style="stroke:#181818;stroke-width:1.0;"/><polygon fill="#181818" points="214.23,560.37,216.9686,550.9096,213.5499,555.4165,209.043,551.9978,214.23,560.37" style="stroke:#181818;stroke-width:1.0;"/><polygon fill="#000000" points="211.1801,494.5199,212.8614,485.1591,207.0382,485.9587,211.1801,494.5199" style="stroke:#000000;stroke-width:1.0;"/><text fill="#000000" font-family="sans-serif" font-size="13" lengthAdjust="spacing" textLength="26" x="219.5" y="494.0669">kind</text><text fill="#000000" font-family="sans-serif" font-size="13" lengthAdjust="spacing" textLength="8" x="204.5243" y="549.2463">1</text></g><!--SRC=[ZLF1QiCm3BtxAqAE0nzs7QFtmTXbN-3OQj6MICPM2e5z_5pNQz8c3ZibbfwUf2SfWZHa1eZUMFW4Ru8H3WqnWRAzYR5fpGb8Ogl-VfgN736_jJuqxLERa4GiHf0feso0J7PeRbGBW7g4T-mcjSa1RcKVMF2Sdm-kNCppNJ5Q9Wyvwi5sgQmMVUjrqKK5sq7iHnIWdABZKPOj6t8ZEgHJvEuBx5N9jJ652aeFDQU3Q0Fwql4c15sg6Oy8eOQ8CjKpv4QhzBCopWM8KGVmwPiopaCfhgjKUnoMoO8lNK-UUpvD2yrkRdMFpFhywLefG-qLE8o45htfKIPTbhYEze7FcDBlWg840Fa76KSnlRRizd7T63MDGvU7M8FD5xSvoG17290gluxYu-szRLv_jDvHhQXwWQwFjHoGshofihNpe4gcLNIXdQz5tLzE8LhODlVb6ycbjdu1]--></g></svg>