<?xml version="1.0" encoding="us-ascii" standalone="no"?><svg xmlns="http://www.w3.org/2000/svg" xmlns:xlink="http://www.w3.org/1999/xlink" contentStyleType="text/css" height="366px" preserveAspectRatio="none" style="width:540px;height:366px;background:#FFFFFF;" version="1.1" viewBox="0 0 540 366" width="540px" zoomAndPan="magnify"><defs/><g><!--class aanduidingsobjects--><g id="elem_aanduidingsobjects"><rect codeLine="2" fill="#F1F1F1" height="145.7813" id="aanduidingsobjects" rx="2.5" ry="2.5" style="stroke:#181818;stroke-width:0.5;" width="167" x="81" y="7"/><ellipse cx="96" cy="23" fill="#ADD1B2" rx="11" ry="11" style="stroke:#181818;stroke-width:1.0;"/><path d="M98.9688,28.6406 Q98.3906,28.9375 97.75,29.0781 Q97.1094,29.2344 96.4063,29.2344 Q93.9063,29.2344 92.5781,27.5938 Q91.2656,25.9375 91.2656,22.8125 Q91.2656,19.6875 92.5781,18.0313 Q93.9063,16.375 96.4063,16.375 Q97.1094,16.375 97.75,16.5313 Q98.4063,16.6875 98.9688,16.9844 L98.9688,19.7031 Q98.3438,19.125 97.75,18.8594 Q97.1563,18.5781 96.5313,18.5781 Q95.1875,18.5781 94.5,19.6563 Q93.8125,20.7188 93.8125,22.8125 Q93.8125,24.9063 94.5,25.9844 Q95.1875,27.0469 96.5313,27.0469 Q97.1563,27.0469 97.75,26.7813 Q98.3438,26.5 98.9688,25.9219 L98.9688,28.6406 Z " fill="#000000"/><text fill="#000000" font-family="sans-serif" font-size="14" lengthAdjust="spacing" textLength="135" x="110" y="27.8467">aanduidingsobjects</text><line style="stroke:#181818;stroke-width:0.5;" x1="82" x2="247" y1="39" y2="39"/><text fill="#000000" font-family="sans-serif" font-size="14" lengthAdjust="spacing" textLength="25" x="87" y="55.9951">title</text><text fill="#000000" font-family="sans-serif" font-size="14" lengthAdjust="spacing" textLength="77" x="87" y="72.292">description</text><text fill="#000000" font-family="sans-serif" font-size="14" lengthAdjust="spacing" textLength="59" x="87" y="88.5889">identifier</text><text fill="#000000" font-family="sans-serif" font-size="14" lengthAdjust="spacing" textLength="32" x="87" y="104.8857">style</text><text fill="#000000" font-family="sans-serif" font-size="14" lengthAdjust="spacing" textLength="56" x="87" y="121.1826">creation</text><text fill="#000000" font-family="sans-serif" font-size="14" lengthAdjust="spacing" textLength="54" x="87" y="137.4795">location</text><line style="stroke:#181818;stroke-width:0.5;" x1="82" x2="247" y1="144.7813" y2="144.7813"/></g><!--class address-representations--><g id="elem_address-representations"><rect codeLine="11" fill="#F1F1F1" height="129.4844" id="address-representations" rx="2.5" ry="2.5" style="stroke:#181818;stroke-width:0.5;" width="203" x="186" y="230"/><ellipse cx="201" cy="246" fill="#ADD1B2" rx="11" ry="11" style="stroke:#181818;stroke-width:1.0;"/><path d="M203.9688,251.6406 Q203.3906,251.9375 202.75,252.0781 Q202.1094,252.2344 201.4063,252.2344 Q198.9063,252.2344 197.5781,250.5938 Q196.2656,248.9375 196.2656,245.8125 Q196.2656,242.6875 197.5781,241.0313 Q198.9063,239.375 201.4063,239.375 Q202.1094,239.375 202.75,239.5313 Q203.4063,239.6875 203.9688,239.9844 L203.9688,242.7031 Q203.3438,242.125 202.75,241.8594 Q202.1563,241.5781 201.5313,241.5781 Q200.1875,241.5781 199.5,242.6563 Q198.8125,243.7188 198.8125,245.8125 Q198.8125,247.9063 199.5,248.9844 Q200.1875,250.0469 201.5313,250.0469 Q202.1563,250.0469 202.75,249.7813 Q203.3438,249.5 203.9688,248.9219 L203.9688,251.6406 Z " fill="#000000"/><text fill="#000000" font-family="sans-serif" font-size="14" lengthAdjust="spacing" textLength="171" x="215" y="250.8467">address-representations</text><line style="stroke:#181818;stroke-width:0.5;" x1="187" x2="388" y1="262" y2="262"/><text fill="#000000" font-family="sans-serif" font-size="14" lengthAdjust="spacing" textLength="124" x="192" y="278.9951">municipality-name</text><text fill="#000000" font-family="sans-serif" font-size="14" lengthAdjust="spacing" textLength="59" x="192" y="295.292">province</text><text fill="#000000" font-family="sans-serif" font-size="14" lengthAdjust="spacing" textLength="85" x="192" y="311.5889">street-name</text><text fill="#000000" font-family="sans-serif" font-size="14" lengthAdjust="spacing" textLength="82" x="192" y="327.8857">postal-code</text><text fill="#000000" font-family="sans-serif" font-size="14" lengthAdjust="spacing" textLength="85" x="192" y="344.1826">bus-number</text><line style="stroke:#181818;stroke-width:0.5;" x1="187" x2="388" y1="351.4844" y2="351.4844"/></g><!--class concepts--><g id="elem_concepts"><rect codeLine="22" fill="#F1F1F1" height="64.2969" id="concepts" rx="2.5" ry="2.5" style="stroke:#181818;stroke-width:0.5;" width="97" x="7" y="262.5"/><ellipse cx="22" cy="278.5" fill="#ADD1B2" rx="11" ry="11" style="stroke:#181818;stroke-width:1.0;"/><path d="M24.9688,284.1406 Q24.3906,284.4375 23.75,284.5781 Q23.1094,284.7344 22.4063,284.7344 Q19.9063,284.7344 18.5781,283.0938 Q17.2656,281.4375 17.2656,278.3125 Q17.2656,275.1875 18.5781,273.5313 Q19.9063,271.875 22.4063,271.875 Q23.1094,271.875 23.75,272.0313 Q24.4063,272.1875 24.9688,272.4844 L24.9688,275.2031 Q24.3438,274.625 23.75,274.3594 Q23.1563,274.0781 22.5313,274.0781 Q21.1875,274.0781 20.5,275.1563 Q19.8125,276.2188 19.8125,278.3125 Q19.8125,280.4063 20.5,281.4844 Q21.1875,282.5469 22.5313,282.5469 Q23.1563,282.5469 23.75,282.2813 Q24.3438,282 24.9688,281.4219 L24.9688,284.1406 Z " fill="#000000"/><text fill="#000000" font-family="sans-serif" font-size="14" lengthAdjust="spacing" textLength="65" x="36" y="283.3467">concepts</text><line style="stroke:#181818;stroke-width:0.5;" x1="8" x2="103" y1="294.5" y2="294.5"/><text fill="#000000" font-family="sans-serif" font-size="14" lengthAdjust="spacing" textLength="25" x="13" y="311.4951">title</text><line style="stroke:#181818;stroke-width:0.5;" x1="8" x2="103" y1="318.7969" y2="318.7969"/></g><!--class NIL--><g id="elem_NIL"><rect codeLine="19" fill="#F1F1F1" height="48" id="NIL" rx="2.5" ry="2.5" style="stroke:#181818;stroke-width:0.5;" width="52" x="350.5" y="56"/><ellipse cx="365.5" cy="72" fill="#ADD1B2" rx="11" ry="11" style="stroke:#181818;stroke-width:1.0;"/><path d="M368.4688,77.6406 Q367.8906,77.9375 367.25,78.0781 Q366.6094,78.2344 365.9063,78.2344 Q363.4063,78.2344 362.0781,76.5938 Q360.7656,74.9375 360.7656,71.8125 Q360.7656,68.6875 362.0781,67.0313 Q363.4063,65.375 365.9063,65.375 Q366.6094,65.375 367.25,65.5313 Q367.9063,65.6875 368.4688,65.9844 L368.4688,68.7031 Q367.8438,68.125 367.25,67.8594 Q366.6563,67.5781 366.0313,67.5781 Q364.6875,67.5781 364,68.6563 Q363.3125,69.7188 363.3125,71.8125 Q363.3125,73.9063 364,74.9844 Q364.6875,76.0469 366.0313,76.0469 Q366.6563,76.0469 367.25,75.7813 Q367.8438,75.5 368.4688,74.9219 L368.4688,77.6406 Z " fill="#000000"/><text fill="#000000" font-family="sans-serif" font-size="14" lengthAdjust="spacing" textLength="20" x="379.5" y="76.8467">NIL</text><line style="stroke:#181818;stroke-width:0.5;" x1="351.5" x2="401.5" y1="88" y2="88"/><line style="stroke:#181818;stroke-width:0.5;" x1="351.5" x2="401.5" y1="96" y2="96"/></g><!--class besluiten--><g id="elem_besluiten"><rect codeLine="20" fill="#F1F1F1" height="64.2969" id="besluiten" rx="2.5" ry="2.5" style="stroke:#181818;stroke-width:0.5;" width="96" x="437.5" y="48"/><ellipse cx="452.5" cy="64" fill="#ADD1B2" rx="11" ry="11" style="stroke:#181818;stroke-width:1.0;"/><path d="M455.4688,69.6406 Q454.8906,69.9375 454.25,70.0781 Q453.6094,70.2344 452.9063,70.2344 Q450.4063,70.2344 449.0781,68.5938 Q447.7656,66.9375 447.7656,63.8125 Q447.7656,60.6875 449.0781,59.0313 Q450.4063,57.375 452.9063,57.375 Q453.6094,57.375 454.25,57.5313 Q454.9063,57.6875 455.4688,57.9844 L455.4688,60.7031 Q454.8438,60.125 454.25,59.8594 Q453.6563,59.5781 453.0313,59.5781 Q451.6875,59.5781 451,60.6563 Q450.3125,61.7188 450.3125,63.8125 Q450.3125,65.9063 451,66.9844 Q451.6875,68.0469 453.0313,68.0469 Q453.6563,68.0469 454.25,67.7813 Q454.8438,67.5 455.4688,66.9219 L455.4688,69.6406 Z " fill="#000000"/><text fill="#000000" font-family="sans-serif" font-size="14" lengthAdjust="spacing" textLength="64" x="466.5" y="68.8467">besluiten</text><line style="stroke:#181818;stroke-width:0.5;" x1="438.5" x2="532.5" y1="80" y2="80"/><text fill="#000000" font-family="sans-serif" font-size="14" lengthAdjust="spacing" textLength="25" x="443.5" y="96.9951">title</text><line style="stroke:#181818;stroke-width:0.5;" x1="438.5" x2="532.5" y1="104.2969" y2="104.2969"/></g><!--link aanduidingsobjects to address-representations--><g id="link_aanduidingsobjects_address-representations"><path codeLine="9" d="M228.97,153.16 C236.08,162.84 242.8,172.91 248.5,183 C256.7,197.53 261.6265,208.4315 267.2865,224.2315 " fill="none" id="aanduidingsobjects-to-address-representations" style="stroke:#181818;stroke-width:1.0;"/><polygon fill="#181818" points="269.31,229.88,270.0405,220.0583,267.6238,225.1729,262.5091,222.7562,269.31,229.88" style="stroke:#181818;stroke-width:1.0;"/><polygon fill="#000000" points="262.8728,195.9675,261.1673,186.6111,255.9935,189.4005,262.8728,195.9675" style="stroke:#000000;stroke-width:1.0;"/><text fill="#000000" font-family="sans-serif" font-size="13" lengthAdjust="spacing" textLength="51" x="269.5" y="196.0669">address</text><text fill="#000000" font-family="sans-serif" font-size="13" lengthAdjust="spacing" textLength="8" x="258.883" y="219.0395">1</text></g><!--link address-representations to aanduidingsobjects--><g id="link_address-representations_aanduidingsobjects"><path codeLine="17" d="M185.82,236.26 C174.45,225.68 164.47,213.61 157.5,200 C150.18,185.73 147.78,175.1879 148.21,159.0679 " fill="none" id="address-representations-to-aanduidingsobjects" style="stroke:#181818;stroke-width:1.0;"/><polygon fill="#181818" points="148.37,153.07,144.1314,161.9601,148.2367,158.0682,152.1286,162.1735,148.37,153.07" style="stroke:#181818;stroke-width:1.0;"/><polygon fill="#000000" points="160.31,187.0715,161.6297,196.4901,166.9138,193.9156,160.31,187.0715" style="stroke:#000000;stroke-width:1.0;"/><text fill="#000000" font-family="sans-serif" font-size="13" lengthAdjust="spacing" textLength="68" x="171.5" y="196.0669">references</text><text fill="#000000" font-family="sans-serif" font-size="13" lengthAdjust="spacing" textLength="7" x="139.499" y="172.833">*</text></g><!--link aanduidingsobjects to concepts--><g id="link_aanduidingsobjects_concepts"><path codeLine="10" d="M80.93,141.67 C69.38,153.97 59.2,167.84 52.5,183 C41.49,207.93 42.558,233.2929 46.638,256.2029 " fill="none" id="aanduidingsobjects-to-concepts" style="stroke:#181818;stroke-width:1.0;"/><polygon fill="#181818" points="47.69,262.11,50.0501,252.5481,46.8134,257.1875,42.174,253.9507,47.69,262.11" style="stroke:#181818;stroke-width:1.0;"/><polygon fill="#000000" points="56.0659,196.3563,61.4757,188.5342,55.8448,186.8483,56.0659,196.3563" style="stroke:#000000;stroke-width:1.0;"/><text fill="#000000" font-family="sans-serif" font-size="13" lengthAdjust="spacing" textLength="54" x="66.5" y="196.0669">typology</text><text fill="#000000" font-family="sans-serif" font-size="13" lengthAdjust="spacing" textLength="8" x="37.4387" y="251.5572">1</text></g><!--reverse link NIL to address-representations--><g id="link_NIL_address-representations"><path codeLine="18" d="M373.717,122.168 C371.667,146.798 367.91,168.49 354.5,200 C350.2,210.11 344.65,220.19 338.6,229.78 " fill="none" id="NIL-backto-address-representations" style="stroke:#181818;stroke-width:1.0;"/><polygon fill="none" points="375.21,104.23,367.7377,121.6703,379.6963,122.6656,375.21,104.23" style="stroke:#181818;stroke-width:1.0;"/></g><!--SRC=[ZPBFIWGn3CRlynIbHw47ho9x5yIBJz1fiqkaavOa5GPyU3lZx8fWgwU6vfS__RuAg26_W1GVu1MAPw-P3MM2AIGlOgpt52j6f8la-Gs2Yfr-kpGFHb4Jz98H930MnKmz12EGuXc1UuJesfyG6FoeVSfXa7VkPEozRG-EaK74CPHsjetseht3aJ8dyqUFa2b0ELHPIqxvicvLLqqx8wRHyAKI1Ym-eQvkCsr85yxls9OOGg8CeFzebaLzSY77CJTNSLINUJUmX-qYtLdJSOdX30njyo-PNvwUhNdyS6wWsg7gXbxZ6IHLLA2cwNTy-wC7TRDf-kdOndm2]--></g></svg>