<?xml version="1.0" encoding="us-ascii" standalone="no"?><svg xmlns="http://www.w3.org/2000/svg" xmlns:xlink="http://www.w3.org/1999/xlink" contentStyleType="text/css" height="648px" preserveAspectRatio="none" style="width:915px;height:648px;background:#FFFFFF;" version="1.1" viewBox="0 0 915 648" width="915px" zoomAndPan="magnify"><defs/><g><!--class annotation-feedbacks--><g id="elem_annotation-feedbacks"><rect codeLine="2" fill="#F1F1F1" height="80.5938" id="annotation-feedbacks" rx="2.5" ry="2.5" style="stroke:#181818;stroke-width:0.5;" width="183" x="7" y="205"/><ellipse cx="22" cy="221" fill="#ADD1B2" rx="11" ry="11" style="stroke:#181818;stroke-width:1.0;"/><path d="M24.9688,226.6406 Q24.3906,226.9375 23.75,227.0781 Q23.1094,227.2344 22.4063,227.2344 Q19.9063,227.2344 18.5781,225.5938 Q17.2656,223.9375 17.2656,220.8125 Q17.2656,217.6875 18.5781,216.0313 Q19.9063,214.375 22.4063,214.375 Q23.1094,214.375 23.75,214.5313 Q24.4063,214.6875 24.9688,214.9844 L24.9688,217.7031 Q24.3438,217.125 23.75,216.8594 Q23.1563,216.5781 22.5313,216.5781 Q21.1875,216.5781 20.5,217.6563 Q19.8125,218.7188 19.8125,220.8125 Q19.8125,222.9063 20.5,223.9844 Q21.1875,225.0469 22.5313,225.0469 Q23.1563,225.0469 23.75,224.7813 Q24.3438,224.5 24.9688,223.9219 L24.9688,226.6406 Z " fill="#000000"/><text fill="#000000" font-family="sans-serif" font-size="14" lengthAdjust="spacing" textLength="151" x="36" y="225.8467">annotation-feedbacks</text><line style="stroke:#181818;stroke-width:0.5;" x1="8" x2="189" y1="237" y2="237"/><text fill="#000000" font-family="sans-serif" font-size="14" lengthAdjust="spacing" textLength="64" x="13" y="253.9951">feedback</text><text fill="#000000" font-family="sans-serif" font-size="14" lengthAdjust="spacing" textLength="39" x="13" y="270.292">rating</text><line style="stroke:#181818;stroke-width:0.5;" x1="8" x2="189" y1="277.5938" y2="277.5938"/></g><!--class annotations--><g id="elem_annotations"><rect codeLine="6" fill="#F1F1F1" height="96.8906" id="annotations" rx="2.5" ry="2.5" style="stroke:#181818;stroke-width:0.5;" width="114" x="244.5" y="7"/><ellipse cx="259.5" cy="23" fill="#ADD1B2" rx="11" ry="11" style="stroke:#181818;stroke-width:1.0;"/><path d="M262.4688,28.6406 Q261.8906,28.9375 261.25,29.0781 Q260.6094,29.2344 259.9063,29.2344 Q257.4063,29.2344 256.0781,27.5938 Q254.7656,25.9375 254.7656,22.8125 Q254.7656,19.6875 256.0781,18.0313 Q257.4063,16.375 259.9063,16.375 Q260.6094,16.375 261.25,16.5313 Q261.9063,16.6875 262.4688,16.9844 L262.4688,19.7031 Q261.8438,19.125 261.25,18.8594 Q260.6563,18.5781 260.0313,18.5781 Q258.6875,18.5781 258,19.6563 Q257.3125,20.7188 257.3125,22.8125 Q257.3125,24.9063 258,25.9844 Q258.6875,27.0469 260.0313,27.0469 Q260.6563,27.0469 261.25,26.7813 Q261.8438,26.5 262.4688,25.9219 L262.4688,28.6406 Z " fill="#000000"/><text fill="#000000" font-family="sans-serif" font-size="14" lengthAdjust="spacing" textLength="82" x="273.5" y="27.8467">annotations</text><line style="stroke:#181818;stroke-width:0.5;" x1="245.5" x2="357.5" y1="39" y2="39"/><text fill="#000000" font-family="sans-serif" font-size="14" lengthAdjust="spacing" textLength="34" x="250.5" y="55.9951">body</text><text fill="#000000" font-family="sans-serif" font-size="14" lengthAdjust="spacing" textLength="53" x="250.5" y="72.292">created</text><text fill="#000000" font-family="sans-serif" font-size="14" lengthAdjust="spacing" textLength="71" x="250.5" y="88.5889">motivation</text><line style="stroke:#181818;stroke-width:0.5;" x1="245.5" x2="357.5" y1="95.8906" y2="95.8906"/></g><!--class annotation-types--><g id="elem_annotation-types"><rect codeLine="35" fill="#F1F1F1" height="64.2969" id="annotation-types" rx="2.5" ry="2.5" style="stroke:#181818;stroke-width:0.5;" width="149" x="189" y="577"/><ellipse cx="204" cy="593" fill="#ADD1B2" rx="11" ry="11" style="stroke:#181818;stroke-width:1.0;"/><path d="M206.9688,598.6406 Q206.3906,598.9375 205.75,599.0781 Q205.1094,599.2344 204.4063,599.2344 Q201.9063,599.2344 200.5781,597.5938 Q199.2656,595.9375 199.2656,592.8125 Q199.2656,589.6875 200.5781,588.0313 Q201.9063,586.375 204.4063,586.375 Q205.1094,586.375 205.75,586.5313 Q206.4063,586.6875 206.9688,586.9844 L206.9688,589.7031 Q206.3438,589.125 205.75,588.8594 Q205.1563,588.5781 204.5313,588.5781 Q203.1875,588.5781 202.5,589.6563 Q201.8125,590.7188 201.8125,592.8125 Q201.8125,594.9063 202.5,595.9844 Q203.1875,597.0469 204.5313,597.0469 Q205.1563,597.0469 205.75,596.7813 Q206.3438,596.5 206.9688,595.9219 L206.9688,598.6406 Z " fill="#000000"/><text fill="#000000" font-family="sans-serif" font-size="14" lengthAdjust="spacing" textLength="117" x="218" y="597.8467">annotation-types</text><line style="stroke:#181818;stroke-width:0.5;" x1="190" x2="337" y1="609" y2="609"/><text fill="#000000" font-family="sans-serif" font-size="14" lengthAdjust="spacing" textLength="25" x="195" y="625.9951">title</text><line style="stroke:#181818;stroke-width:0.5;" x1="190" x2="337" y1="633.2969" y2="633.2969"/></g><!--class agents--><g id="elem_agents"><rect codeLine="13" fill="#F1F1F1" height="64.2969" id="agents" rx="2.5" ry="2.5" style="stroke:#181818;stroke-width:0.5;" width="80" x="307.5" y="213.5"/><ellipse cx="322.5" cy="229.5" fill="#ADD1B2" rx="11" ry="11" style="stroke:#181818;stroke-width:1.0;"/><path d="M325.4688,235.1406 Q324.8906,235.4375 324.25,235.5781 Q323.6094,235.7344 322.9063,235.7344 Q320.4063,235.7344 319.0781,234.0938 Q317.7656,232.4375 317.7656,229.3125 Q317.7656,226.1875 319.0781,224.5313 Q320.4063,222.875 322.9063,222.875 Q323.6094,222.875 324.25,223.0313 Q324.9063,223.1875 325.4688,223.4844 L325.4688,226.2031 Q324.8438,225.625 324.25,225.3594 Q323.6563,225.0781 323.0313,225.0781 Q321.6875,225.0781 321,226.1563 Q320.3125,227.2188 320.3125,229.3125 Q320.3125,231.4063 321,232.4844 Q321.6875,233.5469 323.0313,233.5469 Q323.6563,233.5469 324.25,233.2813 Q324.8438,233 325.4688,232.4219 L325.4688,235.1406 Z " fill="#000000"/><text fill="#000000" font-family="sans-serif" font-size="14" lengthAdjust="spacing" textLength="48" x="336.5" y="234.3467">agents</text><line style="stroke:#181818;stroke-width:0.5;" x1="308.5" x2="386.5" y1="245.5" y2="245.5"/><text fill="#000000" font-family="sans-serif" font-size="14" lengthAdjust="spacing" textLength="39" x="313.5" y="262.4951">name</text><line style="stroke:#181818;stroke-width:0.5;" x1="308.5" x2="386.5" y1="269.7969" y2="269.7969"/></g><!--class besluiten--><g id="elem_besluiten"><rect codeLine="38" fill="#F1F1F1" height="64.2969" id="besluiten" rx="2.5" ry="2.5" style="stroke:#181818;stroke-width:0.5;" width="96" x="444.5" y="213.5"/><ellipse cx="459.5" cy="229.5" fill="#ADD1B2" rx="11" ry="11" style="stroke:#181818;stroke-width:1.0;"/><path d="M462.4688,235.1406 Q461.8906,235.4375 461.25,235.5781 Q460.6094,235.7344 459.9063,235.7344 Q457.4063,235.7344 456.0781,234.0938 Q454.7656,232.4375 454.7656,229.3125 Q454.7656,226.1875 456.0781,224.5313 Q457.4063,222.875 459.9063,222.875 Q460.6094,222.875 461.25,223.0313 Q461.9063,223.1875 462.4688,223.4844 L462.4688,226.2031 Q461.8438,225.625 461.25,225.3594 Q460.6563,225.0781 460.0313,225.0781 Q458.6875,225.0781 458,226.1563 Q457.3125,227.2188 457.3125,229.3125 Q457.3125,231.4063 458,232.4844 Q458.6875,233.5469 460.0313,233.5469 Q460.6563,233.5469 461.25,233.2813 Q461.8438,233 462.4688,232.4219 L462.4688,235.1406 Z " fill="#000000"/><text fill="#000000" font-family="sans-serif" font-size="14" lengthAdjust="spacing" textLength="64" x="473.5" y="234.3467">besluiten</text><line style="stroke:#181818;stroke-width:0.5;" x1="445.5" x2="539.5" y1="245.5" y2="245.5"/><text fill="#000000" font-family="sans-serif" font-size="14" lengthAdjust="spacing" textLength="25" x="450.5" y="262.4951">title</text><line style="stroke:#181818;stroke-width:0.5;" x1="445.5" x2="539.5" y1="269.7969" y2="269.7969"/></g><!--class aanduidingsobjects--><g id="elem_aanduidingsobjects"><rect codeLine="16" fill="#F1F1F1" height="129.4844" id="aanduidingsobjects" rx="2.5" ry="2.5" style="stroke:#181818;stroke-width:0.5;" width="167" x="587" y="181"/><ellipse cx="602" cy="197" fill="#ADD1B2" rx="11" ry="11" style="stroke:#181818;stroke-width:1.0;"/><path d="M604.9688,202.6406 Q604.3906,202.9375 603.75,203.0781 Q603.1094,203.2344 602.4063,203.2344 Q599.9063,203.2344 598.5781,201.5938 Q597.2656,199.9375 597.2656,196.8125 Q597.2656,193.6875 598.5781,192.0313 Q599.9063,190.375 602.4063,190.375 Q603.1094,190.375 603.75,190.5313 Q604.4063,190.6875 604.9688,190.9844 L604.9688,193.7031 Q604.3438,193.125 603.75,192.8594 Q603.1563,192.5781 602.5313,192.5781 Q601.1875,192.5781 600.5,193.6563 Q599.8125,194.7188 599.8125,196.8125 Q599.8125,198.9063 600.5,199.9844 Q601.1875,201.0469 602.5313,201.0469 Q603.1563,201.0469 603.75,200.7813 Q604.3438,200.5 604.9688,199.9219 L604.9688,202.6406 Z " fill="#000000"/><text fill="#000000" font-family="sans-serif" font-size="14" lengthAdjust="spacing" textLength="135" x="616" y="201.8467">aanduidingsobjects</text><line style="stroke:#181818;stroke-width:0.5;" x1="588" x2="753" y1="213" y2="213"/><text fill="#000000" font-family="sans-serif" font-size="14" lengthAdjust="spacing" textLength="25" x="593" y="229.9951">title</text><text fill="#000000" font-family="sans-serif" font-size="14" lengthAdjust="spacing" textLength="77" x="593" y="246.292">description</text><text fill="#000000" font-family="sans-serif" font-size="14" lengthAdjust="spacing" textLength="59" x="593" y="262.5889">identifier</text><text fill="#000000" font-family="sans-serif" font-size="14" lengthAdjust="spacing" textLength="32" x="593" y="278.8857">style</text><text fill="#000000" font-family="sans-serif" font-size="14" lengthAdjust="spacing" textLength="56" x="593" y="295.1826">creation</text><line style="stroke:#181818;stroke-width:0.5;" x1="588" x2="753" y1="302.4844" y2="302.4844"/></g><!--class address-representations--><g id="elem_address-representations"><rect codeLine="26" fill="#F1F1F1" height="129.4844" id="address-representations" rx="2.5" ry="2.5" style="stroke:#181818;stroke-width:0.5;" width="203" x="675" y="387"/><ellipse cx="690" cy="403" fill="#ADD1B2" rx="11" ry="11" style="stroke:#181818;stroke-width:1.0;"/><path d="M692.9688,408.6406 Q692.3906,408.9375 691.75,409.0781 Q691.1094,409.2344 690.4063,409.2344 Q687.9063,409.2344 686.5781,407.5938 Q685.2656,405.9375 685.2656,402.8125 Q685.2656,399.6875 686.5781,398.0313 Q687.9063,396.375 690.4063,396.375 Q691.1094,396.375 691.75,396.5313 Q692.4063,396.6875 692.9688,396.9844 L692.9688,399.7031 Q692.3438,399.125 691.75,398.8594 Q691.1563,398.5781 690.5313,398.5781 Q689.1875,398.5781 688.5,399.6563 Q687.8125,400.7188 687.8125,402.8125 Q687.8125,404.9063 688.5,405.9844 Q689.1875,407.0469 690.5313,407.0469 Q691.1563,407.0469 691.75,406.7813 Q692.3438,406.5 692.9688,405.9219 L692.9688,408.6406 Z " fill="#000000"/><text fill="#000000" font-family="sans-serif" font-size="14" lengthAdjust="spacing" textLength="171" x="704" y="407.8467">address-representations</text><line style="stroke:#181818;stroke-width:0.5;" x1="676" x2="877" y1="419" y2="419"/><text fill="#000000" font-family="sans-serif" font-size="14" lengthAdjust="spacing" textLength="124" x="681" y="435.9951">municipality-name</text><text fill="#000000" font-family="sans-serif" font-size="14" lengthAdjust="spacing" textLength="59" x="681" y="452.292">province</text><text fill="#000000" font-family="sans-serif" font-size="14" lengthAdjust="spacing" textLength="85" x="681" y="468.5889">street-name</text><text fill="#000000" font-family="sans-serif" font-size="14" lengthAdjust="spacing" textLength="82" x="681" y="484.8857">postal-code</text><text fill="#000000" font-family="sans-serif" font-size="14" lengthAdjust="spacing" textLength="85" x="681" y="501.1826">bus-number</text><line style="stroke:#181818;stroke-width:0.5;" x1="676" x2="877" y1="508.4844" y2="508.4844"/></g><!--class concepts--><g id="elem_concepts"><rect codeLine="24" fill="#F1F1F1" height="64.2969" id="concepts" rx="2.5" ry="2.5" style="stroke:#181818;stroke-width:0.5;" width="97" x="432" y="419.5"/><ellipse cx="447" cy="435.5" fill="#ADD1B2" rx="11" ry="11" style="stroke:#181818;stroke-width:1.0;"/><path d="M449.9688,441.1406 Q449.3906,441.4375 448.75,441.5781 Q448.1094,441.7344 447.4063,441.7344 Q444.9063,441.7344 443.5781,440.0938 Q442.2656,438.4375 442.2656,435.3125 Q442.2656,432.1875 443.5781,430.5313 Q444.9063,428.875 447.4063,428.875 Q448.1094,428.875 448.75,429.0313 Q449.4063,429.1875 449.9688,429.4844 L449.9688,432.2031 Q449.3438,431.625 448.75,431.3594 Q448.1563,431.0781 447.5313,431.0781 Q446.1875,431.0781 445.5,432.1563 Q444.8125,433.2188 444.8125,435.3125 Q444.8125,437.4063 445.5,438.4844 Q446.1875,439.5469 447.5313,439.5469 Q448.1563,439.5469 448.75,439.2813 Q449.3438,439 449.9688,438.4219 L449.9688,441.1406 Z " fill="#000000"/><text fill="#000000" font-family="sans-serif" font-size="14" lengthAdjust="spacing" textLength="65" x="461" y="440.3467">concepts</text><line style="stroke:#181818;stroke-width:0.5;" x1="433" x2="528" y1="451.5" y2="451.5"/><text fill="#000000" font-family="sans-serif" font-size="14" lengthAdjust="spacing" textLength="25" x="438" y="468.4951">title</text><line style="stroke:#181818;stroke-width:0.5;" x1="433" x2="528" y1="475.7969" y2="475.7969"/></g><!--class NIL--><g id="elem_NIL"><rect codeLine="34" fill="#F1F1F1" height="48" id="NIL" rx="2.5" ry="2.5" style="stroke:#181818;stroke-width:0.5;" width="52" x="856.5" y="221.5"/><ellipse cx="871.5" cy="237.5" fill="#ADD1B2" rx="11" ry="11" style="stroke:#181818;stroke-width:1.0;"/><path d="M874.4688,243.1406 Q873.8906,243.4375 873.25,243.5781 Q872.6094,243.7344 871.9063,243.7344 Q869.4063,243.7344 868.0781,242.0938 Q866.7656,240.4375 866.7656,237.3125 Q866.7656,234.1875 868.0781,232.5313 Q869.4063,230.875 871.9063,230.875 Q872.6094,230.875 873.25,231.0313 Q873.9063,231.1875 874.4688,231.4844 L874.4688,234.2031 Q873.8438,233.625 873.25,233.3594 Q872.6563,233.0781 872.0313,233.0781 Q870.6875,233.0781 870,234.1563 Q869.3125,235.2188 869.3125,237.3125 Q869.3125,239.4063 870,240.4844 Q870.6875,241.5469 872.0313,241.5469 Q872.6563,241.5469 873.25,241.2813 Q873.8438,241 874.4688,240.4219 L874.4688,243.1406 Z " fill="#000000"/><text fill="#000000" font-family="sans-serif" font-size="14" lengthAdjust="spacing" textLength="20" x="885.5" y="242.3467">NIL</text><line style="stroke:#181818;stroke-width:0.5;" x1="857.5" x2="907.5" y1="253.5" y2="253.5"/><line style="stroke:#181818;stroke-width:0.5;" x1="857.5" x2="907.5" y1="261.5" y2="261.5"/></g><!--reverse link annotations to annotation-feedbacks--><g id="link_annotations_annotation-feedbacks"><path codeLine="5" d="M236.7164,116.2321 C225.9964,126.1321 227.98,124.3 217.5,134 C192.15,157.46 163.82,183.77 141.15,204.83 " fill="none" id="annotations-backto-annotation-feedbacks" style="stroke:#181818;stroke-width:1.0;"/><polygon fill="none" points="249.94,104.02,232.6457,111.8242,240.7871,120.64,249.94,104.02" style="stroke:#181818;stroke-width:1.0;"/></g><!--link annotations to annotation-types--><g id="link_annotations_annotation-types"><path codeLine="10" d="M291.87,104.31 C290.18,114.1 288.61,124.36 287.5,134 C268.36,300.17 264.5524,494.8503 263.7624,570.8303 " fill="none" id="annotations-to-annotation-types" style="stroke:#181818;stroke-width:1.0;"/><polygon fill="#181818" points="263.7,576.83,267.7934,567.8721,263.752,571.8303,259.7938,567.7889,263.7,576.83" style="stroke:#181818;stroke-width:1.0;"/><polygon fill="#000000" points="275.1993,353.5574,278.6769,344.7054,272.8097,344.3519,275.1993,353.5574" style="stroke:#000000;stroke-width:1.0;"/><text fill="#000000" font-family="sans-serif" font-size="13" lengthAdjust="spacing" textLength="102" x="284.5" y="353.0669">annotation-type</text><text fill="#000000" font-family="sans-serif" font-size="13" lengthAdjust="spacing" textLength="8" x="254.9163" y="565.698">1</text></g><!--link annotations to agents--><g id="link_annotations_agents"><path codeLine="11" d="M294.99,104.13 C294.24,119.3 294.81,136.02 298.5,151 C303.93,173.07 312.4919,190.5578 323.0719,208.0278 " fill="none" id="annotations-to-agents" style="stroke:#181818;stroke-width:1.0;"/><polygon fill="#181818" points="326.18,213.16,324.9393,203.3896,323.5899,208.8832,318.0963,207.5338,326.18,213.16" style="stroke:#181818;stroke-width:1.0;"/><polygon fill="#000000" points="304.8046,147.3932,305.2817,137.8946,299.6074,139.4283,304.8046,147.3932" style="stroke:#000000;stroke-width:1.0;"/><text fill="#000000" font-family="sans-serif" font-size="13" lengthAdjust="spacing" textLength="46" x="312.5" y="147.0669">creator</text><text fill="#000000" font-family="sans-serif" font-size="13" lengthAdjust="spacing" textLength="8" x="313.1951" y="202.3672">1</text></g><!--link agents to annotations--><g id="link_agents_annotations"><path codeLine="15" d="M359.76,213.25 C366.77,190.69 372.55,159.79 363.5,134 C359.85,123.59 357.6072,118.4539 351.1072,109.2339 " fill="none" id="agents-to-annotations" style="stroke:#181818;stroke-width:1.0;"/><polygon fill="#181818" points="347.65,104.33,349.5665,113.9906,350.531,108.4166,356.105,109.381,347.65,104.33" style="stroke:#181818;stroke-width:1.0;"/><polygon fill="#000000" points="371.0855,137.5836,368.9065,146.8412,374.7642,146.3539,371.0855,137.5836" style="stroke:#000000;stroke-width:1.0;"/><text fill="#000000" font-family="sans-serif" font-size="13" lengthAdjust="spacing" textLength="46" x="380.5" y="147.0669">creator</text><text fill="#000000" font-family="sans-serif" font-size="13" lengthAdjust="spacing" textLength="7" x="346.3811" y="123.9825">*</text></g><!--link annotations to besluiten--><g id="link_annotations_besluiten"><path codeLine="12" d="M358.6,80.44 C384.46,93.4 413.99,111.43 435.5,134 C457.24,156.81 470.545,183.9581 479.845,207.8681 " fill="none" id="annotations-to-besluiten" style="stroke:#181818;stroke-width:1.0;"/><polygon fill="#181818" points="482.02,213.46,482.4854,203.6221,480.2075,208.8001,475.0295,206.5222,482.02,213.46" style="stroke:#181818;stroke-width:1.0;"/><polygon fill="#000000" points="455.9466,146.1887,451.8408,137.61,447.5825,141.6617,455.9466,146.1887" style="stroke:#000000;stroke-width:1.0;"/><text fill="#000000" font-family="sans-serif" font-size="13" lengthAdjust="spacing" textLength="37" x="461.5" y="147.0669">about</text><text fill="#000000" font-family="sans-serif" font-size="13" lengthAdjust="spacing" textLength="8" x="471.0335" y="202.3549">1</text></g><!--link aanduidingsobjects to address-representations--><g id="link_aanduidingsobjects_address-representations"><path codeLine="22" d="M659.12,310.15 C658.85,326.03 660.89,342.61 667.5,357 C672.45,367.76 675.384,373.2128 683.284,382.3428 " fill="none" id="aanduidingsobjects-to-address-representations" style="stroke:#181818;stroke-width:1.0;"/><polygon fill="#181818" points="687.21,386.88,684.3459,377.4568,683.9383,383.099,678.2962,382.6915,687.21,386.88" style="stroke:#181818;stroke-width:1.0;"/><polygon fill="#000000" points="674.087,353.3079,674.003,343.7977,668.4291,345.6633,674.087,353.3079" style="stroke:#000000;stroke-width:1.0;"/><text fill="#000000" font-family="sans-serif" font-size="13" lengthAdjust="spacing" textLength="51" x="681.5" y="353.0669">address</text><text fill="#000000" font-family="sans-serif" font-size="13" lengthAdjust="spacing" textLength="8" x="669.0064" y="376.0395">1</text></g><!--link address-representations to aanduidingsobjects--><g id="link_address-representations_aanduidingsobjects"><path codeLine="32" d="M757.52,386.96 C751.9,371.24 745.16,354.7 737.5,340 C732.28,329.99 729.4287,324.8486 722.9687,315.1186 " fill="none" id="address-representations-to-aanduidingsobjects" style="stroke:#181818;stroke-width:1.0;"/><polygon fill="#181818" points="719.65,310.12,721.2957,319.8304,722.4156,314.2855,727.9605,315.4054,719.65,310.12" style="stroke:#181818;stroke-width:1.0;"/><polygon fill="#000000" points="746.3329,344.0604,747.6047,353.4856,752.9018,350.938,746.3329,344.0604" style="stroke:#000000;stroke-width:1.0;"/><text fill="#000000" font-family="sans-serif" font-size="13" lengthAdjust="spacing" textLength="68" x="757.5" y="353.0669">references</text><text fill="#000000" font-family="sans-serif" font-size="13" lengthAdjust="spacing" textLength="7" x="717.9283" y="330.5054">*</text></g><!--link aanduidingsobjects to concepts--><g id="link_aanduidingsobjects_concepts"><path codeLine="23" d="M611.16,310.21 C577.3,346.57 540.4596,386.1296 513.5396,415.0296 " fill="none" id="aanduidingsobjects-to-concepts" style="stroke:#181818;stroke-width:1.0;"/><polygon fill="#181818" points="509.45,419.42,518.5113,415.5608,512.858,415.7614,512.6575,410.1081,509.45,419.42" style="stroke:#181818;stroke-width:1.0;"/><polygon fill="#000000" points="582.0924,352.2254,590.4075,347.6092,586.1062,343.6033,582.0924,352.2254" style="stroke:#000000;stroke-width:1.0;"/><text fill="#000000" font-family="sans-serif" font-size="13" lengthAdjust="spacing" textLength="54" x="594.5" y="353.0669">typology</text><text fill="#000000" font-family="sans-serif" font-size="13" lengthAdjust="spacing" textLength="8" x="506.5959" y="408.3066">1</text></g><!--reverse link NIL to address-representations--><g id="link_NIL_address-representations"><path codeLine="33" d="M866.8833,286.5418 C857.8833,309.2318 849.83,327.73 834.5,357 C829.36,366.81 823.57,376.98 817.69,386.84 " fill="none" id="NIL-backto-address-representations" style="stroke:#181818;stroke-width:1.0;"/><polygon fill="none" points="873.52,269.81,861.306,284.3296,872.4606,288.7541,873.52,269.81" style="stroke:#181818;stroke-width:1.0;"/></g><!--reverse link concepts to annotation-types--><g id="link_concepts_annotation-types"><path codeLine="37" d="M422.4782,494.0739 C384.6282,521.1939 344.64,549.85 306.82,576.96 " fill="none" id="concepts-backto-annotation-types" style="stroke:#181818;stroke-width:1.0;"/><polygon fill="none" points="437.11,483.59,418.9836,489.1966,425.9728,498.9511,437.11,483.59" style="stroke:#181818;stroke-width:1.0;"/></g><!--link besluiten to concepts--><g id="link_besluiten_concepts"><path codeLine="40" d="M486.25,277.52 C482.92,295.65 479.17,319.02 477.5,340 C475.37,366.78 476.0711,391.3326 477.5111,413.5026 " fill="none" id="besluiten-to-concepts" style="stroke:#181818;stroke-width:1.0;"/><polygon fill="#181818" points="477.9,419.49,481.3082,410.2497,477.5759,414.5005,473.3251,410.7682,477.9,419.49" style="stroke:#181818;stroke-width:1.0;"/><polygon fill="#000000" points="482.1793,353.5561,485.6923,344.7181,479.8265,344.3412,482.1793,353.5561" style="stroke:#000000;stroke-width:1.0;"/><text fill="#000000" font-family="sans-serif" font-size="13" lengthAdjust="spacing" textLength="26" x="491.5" y="353.0669">kind</text><text fill="#000000" font-family="sans-serif" font-size="13" lengthAdjust="spacing" textLength="8" x="468.5388" y="408.391">1</text></g><!--SRC=[ZLJBQiGm3BpxAqoE1HzwBMNlXT9Bly0FxQ9kOXjRMGZqu-jrd4soYKDFmT9uHXfPYK3SoWwYbng-mSiWoGLkdGMcMnaZRwIrZYIXi-8CO9JKrzYm_J1_uzEXZaWIQ2_BV0g__mfHqzeKijRFfCgPOHFK0II1sSGxHtZBnwUK42VUl3QhGcZma6yznVY9LszVmD9SGJAqZbKGsnu9R9PGhgSxU6fv968BnlkqvdEcUMduRkUZxaGbhUdH9EUZKp-WHzfjC5qcf1PgIGDH1_J5l5q8cbGSdX523H5fg2lasglqiyd618XH1F3fcnJdxajgTFs8GpkhmPUk1-zQTnaMdZtIR8tC_ao-LifWHmLslKMDNhP8WoWJhQDzS3TCyeUWI060_a7c8ibMQ6UESQgFmlQToaEimURdjpl906S8a2eVH_7ryVbOz9fhnTKxTES7DEuYsrtFychdGMr-AULsePqNZwsNi10jOhllvOhMfBR-0000]--></g></svg>